<svg xmlns="http://www.w3.org/2000/svg" width="64" height="64" viewBox="0 0 64 64">
  <title>RAPP Brainstem</title>
  <rect width="64" height="64" rx="8" fill="#0000f2"/>
  <g fill="none" stroke="#f4f2e9" stroke-width="3.5" stroke-linecap="round" stroke-linejoin="round">
    <path d="M32 52V31M32 38c-11 0-15-6-15-14M32 43c11 0 15-6 15-14"/>
    <path d="M26 14c-8-4-16 3-13 11-6 8 1 18 10 15M38 14c8-4 16 3 13 11 6 8-1 18-10 15M25 23l7 8 7-8"/>
  </g>
  <circle cx="32" cy="31" r="4.5" fill="#dfff83"/>
</svg>
