<svg version="1.1" xmlns="http://www.w3.org/2000/svg" viewBox="0 0 680 680"  preserveAspectRatio="xMinYMin meet"><rect width="100%" height="100%" fill="white" cx="0" cy="0"/><path d="M32,32l8,0 0,8 -8,0 0,-8z M40,32l8,0 0,8 -8,0 0,-8z M48,32l8,0 0,8 -8,0 0,-8z M56,32l8,0 0,8 -8,0 0,-8z M64,32l8,0 0,8 -8,0 0,-8z M72,32l8,0 0,8 -8,0 0,-8z M80,32l8,0 0,8 -8,0 0,-8z M120,32l8,0 0,8 -8,0 0,-8z M160,32l8,0 0,8 -8,0 0,-8z M200,32l8,0 0,8 -8,0 0,-8z M208,32l8,0 0,8 -8,0 0,-8z M216,32l8,0 0,8 -8,0 0,-8z M224,32l8,0 0,8 -8,0 0,-8z M232,32l8,0 0,8 -8,0 0,-8z M240,32l8,0 0,8 -8,0 0,-8z M264,32l8,0 0,8 -8,0 0,-8z M272,32l8,0 0,8 -8,0 0,-8z M280,32l8,0 0,8 -8,0 0,-8z M288,32l8,0 0,8 -8,0 0,-8z M296,32l8,0 0,8 -8,0 0,-8z M304,32l8,0 0,8 -8,0 0,-8z M328,32l8,0 0,8 -8,0 0,-8z M360,32l8,0 0,8 -8,0 0,-8z M368,32l8,0 0,8 -8,0 0,-8z M384,32l8,0 0,8 -8,0 0,-8z M392,32l8,0 0,8 -8,0 0,-8z M400,32l8,0 0,8 -8,0 0,-8z M440,32l8,0 0,8 -8,0 0,-8z M456,32l8,0 0,8 -8,0 0,-8z M464,32l8,0 0,8 -8,0 0,-8z M472,32l8,0 0,8 -8,0 0,-8z M512,32l8,0 0,8 -8,0 0,-8z M544,32l8,0 0,8 -8,0 0,-8z M552,32l8,0 0,8 -8,0 0,-8z M592,32l8,0 0,8 -8,0 0,-8z M600,32l8,0 0,8 -8,0 0,-8z M608,32l8,0 0,8 -8,0 0,-8z M616,32l8,0 0,8 -8,0 0,-8z M624,32l8,0 0,8 -8,0 0,-8z M632,32l8,0 0,8 -8,0 0,-8z M640,32l8,0 0,8 -8,0 0,-8z M32,40l8,0 0,8 -8,0 0,-8z M80,40l8,0 0,8 -8,0 0,-8z M120,40l8,0 0,8 -8,0 0,-8z M136,40l8,0 0,8 -8,0 0,-8z M184,40l8,0 0,8 -8,0 0,-8z M224,40l8,0 0,8 -8,0 0,-8z M232,40l8,0 0,8 -8,0 0,-8z M256,40l8,0 0,8 -8,0 0,-8z M272,40l8,0 0,8 -8,0 0,-8z M280,40l8,0 0,8 -8,0 0,-8z M296,40l8,0 0,8 -8,0 0,-8z M312,40l8,0 0,8 -8,0 0,-8z M360,40l8,0 0,8 -8,0 0,-8z M368,40l8,0 0,8 -8,0 0,-8z M392,40l8,0 0,8 -8,0 0,-8z M400,40l8,0 0,8 -8,0 0,-8z M408,40l8,0 0,8 -8,0 0,-8z M432,40l8,0 0,8 -8,0 0,-8z M456,40l8,0 0,8 -8,0 0,-8z M464,40l8,0 0,8 -8,0 0,-8z M472,40l8,0 0,8 -8,0 0,-8z M488,40l8,0 0,8 -8,0 0,-8z M512,40l8,0 0,8 -8,0 0,-8z M528,40l8,0 0,8 -8,0 0,-8z M544,40l8,0 0,8 -8,0 0,-8z M552,40l8,0 0,8 -8,0 0,-8z M560,40l8,0 0,8 -8,0 0,-8z M576,40l8,0 0,8 -8,0 0,-8z M592,40l8,0 0,8 -8,0 0,-8z M640,40l8,0 0,8 -8,0 0,-8z M32,48l8,0 0,8 -8,0 0,-8z M48,48l8,0 0,8 -8,0 0,-8z M56,48l8,0 0,8 -8,0 0,-8z M64,48l8,0 0,8 -8,0 0,-8z M80,48l8,0 0,8 -8,0 0,-8z M112,48l8,0 0,8 -8,0 0,-8z M120,48l8,0 0,8 -8,0 0,-8z M128,48l8,0 0,8 -8,0 0,-8z M176,48l8,0 0,8 -8,0 0,-8z M208,48l8,0 0,8 -8,0 0,-8z M224,48l8,0 0,8 -8,0 0,-8z M240,48l8,0 0,8 -8,0 0,-8z M248,48l8,0 0,8 -8,0 0,-8z M280,48l8,0 0,8 -8,0 0,-8z M336,48l8,0 0,8 -8,0 0,-8z M352,48l8,0 0,8 -8,0 0,-8z M360,48l8,0 0,8 -8,0 0,-8z M376,48l8,0 0,8 -8,0 0,-8z M384,48l8,0 0,8 -8,0 0,-8z M408,48l8,0 0,8 -8,0 0,-8z M432,48l8,0 0,8 -8,0 0,-8z M440,48l8,0 0,8 -8,0 0,-8z M448,48l8,0 0,8 -8,0 0,-8z M464,48l8,0 0,8 -8,0 0,-8z M472,48l8,0 0,8 -8,0 0,-8z M480,48l8,0 0,8 -8,0 0,-8z M488,48l8,0 0,8 -8,0 0,-8z M496,48l8,0 0,8 -8,0 0,-8z M520,48l8,0 0,8 -8,0 0,-8z M536,48l8,0 0,8 -8,0 0,-8z M576,48l8,0 0,8 -8,0 0,-8z M592,48l8,0 0,8 -8,0 0,-8z M608,48l8,0 0,8 -8,0 0,-8z M616,48l8,0 0,8 -8,0 0,-8z M624,48l8,0 0,8 -8,0 0,-8z M640,48l8,0 0,8 -8,0 0,-8z M32,56l8,0 0,8 -8,0 0,-8z M48,56l8,0 0,8 -8,0 0,-8z M56,56l8,0 0,8 -8,0 0,-8z M64,56l8,0 0,8 -8,0 0,-8z M80,56l8,0 0,8 -8,0 0,-8z M120,56l8,0 0,8 -8,0 0,-8z M128,56l8,0 0,8 -8,0 0,-8z M152,56l8,0 0,8 -8,0 0,-8z M160,56l8,0 0,8 -8,0 0,-8z M168,56l8,0 0,8 -8,0 0,-8z M184,56l8,0 0,8 -8,0 0,-8z M192,56l8,0 0,8 -8,0 0,-8z M208,56l8,0 0,8 -8,0 0,-8z M216,56l8,0 0,8 -8,0 0,-8z M232,56l8,0 0,8 -8,0 0,-8z M312,56l8,0 0,8 -8,0 0,-8z M328,56l8,0 0,8 -8,0 0,-8z M360,56l8,0 0,8 -8,0 0,-8z M368,56l8,0 0,8 -8,0 0,-8z M392,56l8,0 0,8 -8,0 0,-8z M400,56l8,0 0,8 -8,0 0,-8z M424,56l8,0 0,8 -8,0 0,-8z M432,56l8,0 0,8 -8,0 0,-8z M440,56l8,0 0,8 -8,0 0,-8z M448,56l8,0 0,8 -8,0 0,-8z M456,56l8,0 0,8 -8,0 0,-8z M472,56l8,0 0,8 -8,0 0,-8z M488,56l8,0 0,8 -8,0 0,-8z M496,56l8,0 0,8 -8,0 0,-8z M504,56l8,0 0,8 -8,0 0,-8z M512,56l8,0 0,8 -8,0 0,-8z M528,56l8,0 0,8 -8,0 0,-8z M536,56l8,0 0,8 -8,0 0,-8z M552,56l8,0 0,8 -8,0 0,-8z M576,56l8,0 0,8 -8,0 0,-8z M592,56l8,0 0,8 -8,0 0,-8z M608,56l8,0 0,8 -8,0 0,-8z M616,56l8,0 0,8 -8,0 0,-8z M624,56l8,0 0,8 -8,0 0,-8z M640,56l8,0 0,8 -8,0 0,-8z M32,64l8,0 0,8 -8,0 0,-8z M48,64l8,0 0,8 -8,0 0,-8z M56,64l8,0 0,8 -8,0 0,-8z M64,64l8,0 0,8 -8,0 0,-8z M80,64l8,0 0,8 -8,0 0,-8z M104,64l8,0 0,8 -8,0 0,-8z M120,64l8,0 0,8 -8,0 0,-8z M136,64l8,0 0,8 -8,0 0,-8z M144,64l8,0 0,8 -8,0 0,-8z M168,64l8,0 0,8 -8,0 0,-8z M192,64l8,0 0,8 -8,0 0,-8z M200,64l8,0 0,8 -8,0 0,-8z M208,64l8,0 0,8 -8,0 0,-8z M216,64l8,0 0,8 -8,0 0,-8z M224,64l8,0 0,8 -8,0 0,-8z M232,64l8,0 0,8 -8,0 0,-8z M240,64l8,0 0,8 -8,0 0,-8z M248,64l8,0 0,8 -8,0 0,-8z M256,64l8,0 0,8 -8,0 0,-8z M264,64l8,0 0,8 -8,0 0,-8z M272,64l8,0 0,8 -8,0 0,-8z M296,64l8,0 0,8 -8,0 0,-8z M336,64l8,0 0,8 -8,0 0,-8z M360,64l8,0 0,8 -8,0 0,-8z M368,64l8,0 0,8 -8,0 0,-8z M384,64l8,0 0,8 -8,0 0,-8z M400,64l8,0 0,8 -8,0 0,-8z M408,64l8,0 0,8 -8,0 0,-8z M416,64l8,0 0,8 -8,0 0,-8z M424,64l8,0 0,8 -8,0 0,-8z M432,64l8,0 0,8 -8,0 0,-8z M480,64l8,0 0,8 -8,0 0,-8z M520,64l8,0 0,8 -8,0 0,-8z M528,64l8,0 0,8 -8,0 0,-8z M536,64l8,0 0,8 -8,0 0,-8z M544,64l8,0 0,8 -8,0 0,-8z M552,64l8,0 0,8 -8,0 0,-8z M560,64l8,0 0,8 -8,0 0,-8z M568,64l8,0 0,8 -8,0 0,-8z M576,64l8,0 0,8 -8,0 0,-8z M592,64l8,0 0,8 -8,0 0,-8z M608,64l8,0 0,8 -8,0 0,-8z M616,64l8,0 0,8 -8,0 0,-8z M624,64l8,0 0,8 -8,0 0,-8z M640,64l8,0 0,8 -8,0 0,-8z M32,72l8,0 0,8 -8,0 0,-8z M80,72l8,0 0,8 -8,0 0,-8z M96,72l8,0 0,8 -8,0 0,-8z M112,72l8,0 0,8 -8,0 0,-8z M120,72l8,0 0,8 -8,0 0,-8z M144,72l8,0 0,8 -8,0 0,-8z M152,72l8,0 0,8 -8,0 0,-8z M160,72l8,0 0,8 -8,0 0,-8z M184,72l8,0 0,8 -8,0 0,-8z M192,72l8,0 0,8 -8,0 0,-8z M208,72l8,0 0,8 -8,0 0,-8z M216,72l8,0 0,8 -8,0 0,-8z M224,72l8,0 0,8 -8,0 0,-8z M256,72l8,0 0,8 -8,0 0,-8z M264,72l8,0 0,8 -8,0 0,-8z M272,72l8,0 0,8 -8,0 0,-8z M288,72l8,0 0,8 -8,0 0,-8z M296,72l8,0 0,8 -8,0 0,-8z M304,72l8,0 0,8 -8,0 0,-8z M312,72l8,0 0,8 -8,0 0,-8z M320,72l8,0 0,8 -8,0 0,-8z M328,72l8,0 0,8 -8,0 0,-8z M352,72l8,0 0,8 -8,0 0,-8z M360,72l8,0 0,8 -8,0 0,-8z M376,72l8,0 0,8 -8,0 0,-8z M384,72l8,0 0,8 -8,0 0,-8z M392,72l8,0 0,8 -8,0 0,-8z M400,72l8,0 0,8 -8,0 0,-8z M432,72l8,0 0,8 -8,0 0,-8z M448,72l8,0 0,8 -8,0 0,-8z M456,72l8,0 0,8 -8,0 0,-8z M464,72l8,0 0,8 -8,0 0,-8z M472,72l8,0 0,8 -8,0 0,-8z M496,72l8,0 0,8 -8,0 0,-8z M504,72l8,0 0,8 -8,0 0,-8z M528,72l8,0 0,8 -8,0 0,-8z M536,72l8,0 0,8 -8,0 0,-8z M544,72l8,0 0,8 -8,0 0,-8z M552,72l8,0 0,8 -8,0 0,-8z M560,72l8,0 0,8 -8,0 0,-8z M592,72l8,0 0,8 -8,0 0,-8z M640,72l8,0 0,8 -8,0 0,-8z M32,80l8,0 0,8 -8,0 0,-8z M40,80l8,0 0,8 -8,0 0,-8z M48,80l8,0 0,8 -8,0 0,-8z M56,80l8,0 0,8 -8,0 0,-8z M64,80l8,0 0,8 -8,0 0,-8z M72,80l8,0 0,8 -8,0 0,-8z M80,80l8,0 0,8 -8,0 0,-8z M96,80l8,0 0,8 -8,0 0,-8z M112,80l8,0 0,8 -8,0 0,-8z M128,80l8,0 0,8 -8,0 0,-8z M144,80l8,0 0,8 -8,0 0,-8z M160,80l8,0 0,8 -8,0 0,-8z M176,80l8,0 0,8 -8,0 0,-8z M192,80l8,0 0,8 -8,0 0,-8z M208,80l8,0 0,8 -8,0 0,-8z M224,80l8,0 0,8 -8,0 0,-8z M240,80l8,0 0,8 -8,0 0,-8z M256,80l8,0 0,8 -8,0 0,-8z M272,80l8,0 0,8 -8,0 0,-8z M288,80l8,0 0,8 -8,0 0,-8z M304,80l8,0 0,8 -8,0 0,-8z M320,80l8,0 0,8 -8,0 0,-8z M336,80l8,0 0,8 -8,0 0,-8z M352,80l8,0 0,8 -8,0 0,-8z M368,80l8,0 0,8 -8,0 0,-8z M384,80l8,0 0,8 -8,0 0,-8z M400,80l8,0 0,8 -8,0 0,-8z M416,80l8,0 0,8 -8,0 0,-8z M432,80l8,0 0,8 -8,0 0,-8z M448,80l8,0 0,8 -8,0 0,-8z M464,80l8,0 0,8 -8,0 0,-8z M480,80l8,0 0,8 -8,0 0,-8z M496,80l8,0 0,8 -8,0 0,-8z M512,80l8,0 0,8 -8,0 0,-8z M528,80l8,0 0,8 -8,0 0,-8z M544,80l8,0 0,8 -8,0 0,-8z M560,80l8,0 0,8 -8,0 0,-8z M576,80l8,0 0,8 -8,0 0,-8z M592,80l8,0 0,8 -8,0 0,-8z M600,80l8,0 0,8 -8,0 0,-8z M608,80l8,0 0,8 -8,0 0,-8z M616,80l8,0 0,8 -8,0 0,-8z M624,80l8,0 0,8 -8,0 0,-8z M632,80l8,0 0,8 -8,0 0,-8z M640,80l8,0 0,8 -8,0 0,-8z M112,88l8,0 0,8 -8,0 0,-8z M144,88l8,0 0,8 -8,0 0,-8z M184,88l8,0 0,8 -8,0 0,-8z M200,88l8,0 0,8 -8,0 0,-8z M224,88l8,0 0,8 -8,0 0,-8z M256,88l8,0 0,8 -8,0 0,-8z M280,88l8,0 0,8 -8,0 0,-8z M288,88l8,0 0,8 -8,0 0,-8z M312,88l8,0 0,8 -8,0 0,-8z M320,88l8,0 0,8 -8,0 0,-8z M328,88l8,0 0,8 -8,0 0,-8z M368,88l8,0 0,8 -8,0 0,-8z M392,88l8,0 0,8 -8,0 0,-8z M400,88l8,0 0,8 -8,0 0,-8z M432,88l8,0 0,8 -8,0 0,-8z M464,88l8,0 0,8 -8,0 0,-8z M480,88l8,0 0,8 -8,0 0,-8z M504,88l8,0 0,8 -8,0 0,-8z M512,88l8,0 0,8 -8,0 0,-8z M520,88l8,0 0,8 -8,0 0,-8z M528,88l8,0 0,8 -8,0 0,-8z M544,88l8,0 0,8 -8,0 0,-8z M552,88l8,0 0,8 -8,0 0,-8z M576,88l8,0 0,8 -8,0 0,-8z M32,96l8,0 0,8 -8,0 0,-8z M56,96l8,0 0,8 -8,0 0,-8z M72,96l8,0 0,8 -8,0 0,-8z M80,96l8,0 0,8 -8,0 0,-8z M96,96l8,0 0,8 -8,0 0,-8z M104,96l8,0 0,8 -8,0 0,-8z M120,96l8,0 0,8 -8,0 0,-8z M128,96l8,0 0,8 -8,0 0,-8z M144,96l8,0 0,8 -8,0 0,-8z M152,96l8,0 0,8 -8,0 0,-8z M168,96l8,0 0,8 -8,0 0,-8z M184,96l8,0 0,8 -8,0 0,-8z M192,96l8,0 0,8 -8,0 0,-8z M208,96l8,0 0,8 -8,0 0,-8z M216,96l8,0 0,8 -8,0 0,-8z M224,96l8,0 0,8 -8,0 0,-8z M232,96l8,0 0,8 -8,0 0,-8z M240,96l8,0 0,8 -8,0 0,-8z M248,96l8,0 0,8 -8,0 0,-8z M256,96l8,0 0,8 -8,0 0,-8z M272,96l8,0 0,8 -8,0 0,-8z M280,96l8,0 0,8 -8,0 0,-8z M320,96l8,0 0,8 -8,0 0,-8z M336,96l8,0 0,8 -8,0 0,-8z M352,96l8,0 0,8 -8,0 0,-8z M368,96l8,0 0,8 -8,0 0,-8z M376,96l8,0 0,8 -8,0 0,-8z M384,96l8,0 0,8 -8,0 0,-8z M392,96l8,0 0,8 -8,0 0,-8z M400,96l8,0 0,8 -8,0 0,-8z M408,96l8,0 0,8 -8,0 0,-8z M416,96l8,0 0,8 -8,0 0,-8z M424,96l8,0 0,8 -8,0 0,-8z M432,96l8,0 0,8 -8,0 0,-8z M456,96l8,0 0,8 -8,0 0,-8z M464,96l8,0 0,8 -8,0 0,-8z M496,96l8,0 0,8 -8,0 0,-8z M512,96l8,0 0,8 -8,0 0,-8z M520,96l8,0 0,8 -8,0 0,-8z M544,96l8,0 0,8 -8,0 0,-8z M552,96l8,0 0,8 -8,0 0,-8z M576,96l8,0 0,8 -8,0 0,-8z M584,96l8,0 0,8 -8,0 0,-8z M600,96l8,0 0,8 -8,0 0,-8z M40,104l8,0 0,8 -8,0 0,-8z M48,104l8,0 0,8 -8,0 0,-8z M88,104l8,0 0,8 -8,0 0,-8z M96,104l8,0 0,8 -8,0 0,-8z M112,104l8,0 0,8 -8,0 0,-8z M120,104l8,0 0,8 -8,0 0,-8z M128,104l8,0 0,8 -8,0 0,-8z M176,104l8,0 0,8 -8,0 0,-8z M216,104l8,0 0,8 -8,0 0,-8z M224,104l8,0 0,8 -8,0 0,-8z M248,104l8,0 0,8 -8,0 0,-8z M264,104l8,0 0,8 -8,0 0,-8z M280,104l8,0 0,8 -8,0 0,-8z M304,104l8,0 0,8 -8,0 0,-8z M312,104l8,0 0,8 -8,0 0,-8z M320,104l8,0 0,8 -8,0 0,-8z M376,104l8,0 0,8 -8,0 0,-8z M384,104l8,0 0,8 -8,0 0,-8z M392,104l8,0 0,8 -8,0 0,-8z M416,104l8,0 0,8 -8,0 0,-8z M424,104l8,0 0,8 -8,0 0,-8z M432,104l8,0 0,8 -8,0 0,-8z M440,104l8,0 0,8 -8,0 0,-8z M456,104l8,0 0,8 -8,0 0,-8z M488,104l8,0 0,8 -8,0 0,-8z M512,104l8,0 0,8 -8,0 0,-8z M520,104l8,0 0,8 -8,0 0,-8z M544,104l8,0 0,8 -8,0 0,-8z M552,104l8,0 0,8 -8,0 0,-8z M568,104l8,0 0,8 -8,0 0,-8z M584,104l8,0 0,8 -8,0 0,-8z M592,104l8,0 0,8 -8,0 0,-8z M608,104l8,0 0,8 -8,0 0,-8z M616,104l8,0 0,8 -8,0 0,-8z M72,112l8,0 0,8 -8,0 0,-8z M80,112l8,0 0,8 -8,0 0,-8z M88,112l8,0 0,8 -8,0 0,-8z M104,112l8,0 0,8 -8,0 0,-8z M112,112l8,0 0,8 -8,0 0,-8z M136,112l8,0 0,8 -8,0 0,-8z M152,112l8,0 0,8 -8,0 0,-8z M160,112l8,0 0,8 -8,0 0,-8z M176,112l8,0 0,8 -8,0 0,-8z M208,112l8,0 0,8 -8,0 0,-8z M224,112l8,0 0,8 -8,0 0,-8z M264,112l8,0 0,8 -8,0 0,-8z M320,112l8,0 0,8 -8,0 0,-8z M328,112l8,0 0,8 -8,0 0,-8z M336,112l8,0 0,8 -8,0 0,-8z M344,112l8,0 0,8 -8,0 0,-8z M360,112l8,0 0,8 -8,0 0,-8z M368,112l8,0 0,8 -8,0 0,-8z M400,112l8,0 0,8 -8,0 0,-8z M416,112l8,0 0,8 -8,0 0,-8z M440,112l8,0 0,8 -8,0 0,-8z M480,112l8,0 0,8 -8,0 0,-8z M496,112l8,0 0,8 -8,0 0,-8z M504,112l8,0 0,8 -8,0 0,-8z M520,112l8,0 0,8 -8,0 0,-8z M576,112l8,0 0,8 -8,0 0,-8z M584,112l8,0 0,8 -8,0 0,-8z M608,112l8,0 0,8 -8,0 0,-8z M632,112l8,0 0,8 -8,0 0,-8z M32,120l8,0 0,8 -8,0 0,-8z M48,120l8,0 0,8 -8,0 0,-8z M56,120l8,0 0,8 -8,0 0,-8z M88,120l8,0 0,8 -8,0 0,-8z M96,120l8,0 0,8 -8,0 0,-8z M112,120l8,0 0,8 -8,0 0,-8z M128,120l8,0 0,8 -8,0 0,-8z M136,120l8,0 0,8 -8,0 0,-8z M168,120l8,0 0,8 -8,0 0,-8z M216,120l8,0 0,8 -8,0 0,-8z M224,120l8,0 0,8 -8,0 0,-8z M232,120l8,0 0,8 -8,0 0,-8z M240,120l8,0 0,8 -8,0 0,-8z M248,120l8,0 0,8 -8,0 0,-8z M256,120l8,0 0,8 -8,0 0,-8z M264,120l8,0 0,8 -8,0 0,-8z M280,120l8,0 0,8 -8,0 0,-8z M288,120l8,0 0,8 -8,0 0,-8z M304,120l8,0 0,8 -8,0 0,-8z M336,120l8,0 0,8 -8,0 0,-8z M376,120l8,0 0,8 -8,0 0,-8z M384,120l8,0 0,8 -8,0 0,-8z M392,120l8,0 0,8 -8,0 0,-8z M408,120l8,0 0,8 -8,0 0,-8z M416,120l8,0 0,8 -8,0 0,-8z M440,120l8,0 0,8 -8,0 0,-8z M448,120l8,0 0,8 -8,0 0,-8z M456,120l8,0 0,8 -8,0 0,-8z M504,120l8,0 0,8 -8,0 0,-8z M512,120l8,0 0,8 -8,0 0,-8z M520,120l8,0 0,8 -8,0 0,-8z M528,120l8,0 0,8 -8,0 0,-8z M544,120l8,0 0,8 -8,0 0,-8z M552,120l8,0 0,8 -8,0 0,-8z M568,120l8,0 0,8 -8,0 0,-8z M584,120l8,0 0,8 -8,0 0,-8z M592,120l8,0 0,8 -8,0 0,-8z M600,120l8,0 0,8 -8,0 0,-8z M624,120l8,0 0,8 -8,0 0,-8z M632,120l8,0 0,8 -8,0 0,-8z M32,128l8,0 0,8 -8,0 0,-8z M64,128l8,0 0,8 -8,0 0,-8z M72,128l8,0 0,8 -8,0 0,-8z M80,128l8,0 0,8 -8,0 0,-8z M88,128l8,0 0,8 -8,0 0,-8z M136,128l8,0 0,8 -8,0 0,-8z M152,128l8,0 0,8 -8,0 0,-8z M168,128l8,0 0,8 -8,0 0,-8z M176,128l8,0 0,8 -8,0 0,-8z M192,128l8,0 0,8 -8,0 0,-8z M200,128l8,0 0,8 -8,0 0,-8z M216,128l8,0 0,8 -8,0 0,-8z M232,128l8,0 0,8 -8,0 0,-8z M256,128l8,0 0,8 -8,0 0,-8z M280,128l8,0 0,8 -8,0 0,-8z M288,128l8,0 0,8 -8,0 0,-8z M296,128l8,0 0,8 -8,0 0,-8z M304,128l8,0 0,8 -8,0 0,-8z M312,128l8,0 0,8 -8,0 0,-8z M320,128l8,0 0,8 -8,0 0,-8z M336,128l8,0 0,8 -8,0 0,-8z M344,128l8,0 0,8 -8,0 0,-8z M352,128l8,0 0,8 -8,0 0,-8z M360,128l8,0 0,8 -8,0 0,-8z M368,128l8,0 0,8 -8,0 0,-8z M376,128l8,0 0,8 -8,0 0,-8z M384,128l8,0 0,8 -8,0 0,-8z M416,128l8,0 0,8 -8,0 0,-8z M424,128l8,0 0,8 -8,0 0,-8z M456,128l8,0 0,8 -8,0 0,-8z M464,128l8,0 0,8 -8,0 0,-8z M480,128l8,0 0,8 -8,0 0,-8z M520,128l8,0 0,8 -8,0 0,-8z M624,128l8,0 0,8 -8,0 0,-8z M632,128l8,0 0,8 -8,0 0,-8z M640,128l8,0 0,8 -8,0 0,-8z M48,136l8,0 0,8 -8,0 0,-8z M56,136l8,0 0,8 -8,0 0,-8z M64,136l8,0 0,8 -8,0 0,-8z M96,136l8,0 0,8 -8,0 0,-8z M112,136l8,0 0,8 -8,0 0,-8z M120,136l8,0 0,8 -8,0 0,-8z M136,136l8,0 0,8 -8,0 0,-8z M144,136l8,0 0,8 -8,0 0,-8z M152,136l8,0 0,8 -8,0 0,-8z M168,136l8,0 0,8 -8,0 0,-8z M176,136l8,0 0,8 -8,0 0,-8z M208,136l8,0 0,8 -8,0 0,-8z M224,136l8,0 0,8 -8,0 0,-8z M232,136l8,0 0,8 -8,0 0,-8z M304,136l8,0 0,8 -8,0 0,-8z M312,136l8,0 0,8 -8,0 0,-8z M328,136l8,0 0,8 -8,0 0,-8z M352,136l8,0 0,8 -8,0 0,-8z M360,136l8,0 0,8 -8,0 0,-8z M384,136l8,0 0,8 -8,0 0,-8z M392,136l8,0 0,8 -8,0 0,-8z M400,136l8,0 0,8 -8,0 0,-8z M408,136l8,0 0,8 -8,0 0,-8z M416,136l8,0 0,8 -8,0 0,-8z M424,136l8,0 0,8 -8,0 0,-8z M440,136l8,0 0,8 -8,0 0,-8z M448,136l8,0 0,8 -8,0 0,-8z M456,136l8,0 0,8 -8,0 0,-8z M472,136l8,0 0,8 -8,0 0,-8z M480,136l8,0 0,8 -8,0 0,-8z M488,136l8,0 0,8 -8,0 0,-8z M504,136l8,0 0,8 -8,0 0,-8z M544,136l8,0 0,8 -8,0 0,-8z M552,136l8,0 0,8 -8,0 0,-8z M576,136l8,0 0,8 -8,0 0,-8z M592,136l8,0 0,8 -8,0 0,-8z M600,136l8,0 0,8 -8,0 0,-8z M608,136l8,0 0,8 -8,0 0,-8z M616,136l8,0 0,8 -8,0 0,-8z M632,136l8,0 0,8 -8,0 0,-8z M640,136l8,0 0,8 -8,0 0,-8z M32,144l8,0 0,8 -8,0 0,-8z M56,144l8,0 0,8 -8,0 0,-8z M72,144l8,0 0,8 -8,0 0,-8z M80,144l8,0 0,8 -8,0 0,-8z M112,144l8,0 0,8 -8,0 0,-8z M120,144l8,0 0,8 -8,0 0,-8z M152,144l8,0 0,8 -8,0 0,-8z M160,144l8,0 0,8 -8,0 0,-8z M176,144l8,0 0,8 -8,0 0,-8z M192,144l8,0 0,8 -8,0 0,-8z M200,144l8,0 0,8 -8,0 0,-8z M232,144l8,0 0,8 -8,0 0,-8z M240,144l8,0 0,8 -8,0 0,-8z M272,144l8,0 0,8 -8,0 0,-8z M320,144l8,0 0,8 -8,0 0,-8z M328,144l8,0 0,8 -8,0 0,-8z M384,144l8,0 0,8 -8,0 0,-8z M408,144l8,0 0,8 -8,0 0,-8z M416,144l8,0 0,8 -8,0 0,-8z M432,144l8,0 0,8 -8,0 0,-8z M440,144l8,0 0,8 -8,0 0,-8z M472,144l8,0 0,8 -8,0 0,-8z M488,144l8,0 0,8 -8,0 0,-8z M520,144l8,0 0,8 -8,0 0,-8z M528,144l8,0 0,8 -8,0 0,-8z M536,144l8,0 0,8 -8,0 0,-8z M544,144l8,0 0,8 -8,0 0,-8z M552,144l8,0 0,8 -8,0 0,-8z M584,144l8,0 0,8 -8,0 0,-8z M592,144l8,0 0,8 -8,0 0,-8z M600,144l8,0 0,8 -8,0 0,-8z M632,144l8,0 0,8 -8,0 0,-8z M640,144l8,0 0,8 -8,0 0,-8z M56,152l8,0 0,8 -8,0 0,-8z M72,152l8,0 0,8 -8,0 0,-8z M88,152l8,0 0,8 -8,0 0,-8z M96,152l8,0 0,8 -8,0 0,-8z M112,152l8,0 0,8 -8,0 0,-8z M120,152l8,0 0,8 -8,0 0,-8z M160,152l8,0 0,8 -8,0 0,-8z M168,152l8,0 0,8 -8,0 0,-8z M176,152l8,0 0,8 -8,0 0,-8z M208,152l8,0 0,8 -8,0 0,-8z M232,152l8,0 0,8 -8,0 0,-8z M248,152l8,0 0,8 -8,0 0,-8z M256,152l8,0 0,8 -8,0 0,-8z M272,152l8,0 0,8 -8,0 0,-8z M288,152l8,0 0,8 -8,0 0,-8z M296,152l8,0 0,8 -8,0 0,-8z M312,152l8,0 0,8 -8,0 0,-8z M320,152l8,0 0,8 -8,0 0,-8z M328,152l8,0 0,8 -8,0 0,-8z M352,152l8,0 0,8 -8,0 0,-8z M376,152l8,0 0,8 -8,0 0,-8z M384,152l8,0 0,8 -8,0 0,-8z M392,152l8,0 0,8 -8,0 0,-8z M400,152l8,0 0,8 -8,0 0,-8z M424,152l8,0 0,8 -8,0 0,-8z M448,152l8,0 0,8 -8,0 0,-8z M472,152l8,0 0,8 -8,0 0,-8z M480,152l8,0 0,8 -8,0 0,-8z M488,152l8,0 0,8 -8,0 0,-8z M496,152l8,0 0,8 -8,0 0,-8z M512,152l8,0 0,8 -8,0 0,-8z M520,152l8,0 0,8 -8,0 0,-8z M536,152l8,0 0,8 -8,0 0,-8z M544,152l8,0 0,8 -8,0 0,-8z M552,152l8,0 0,8 -8,0 0,-8z M592,152l8,0 0,8 -8,0 0,-8z M632,152l8,0 0,8 -8,0 0,-8z M640,152l8,0 0,8 -8,0 0,-8z M32,160l8,0 0,8 -8,0 0,-8z M80,160l8,0 0,8 -8,0 0,-8z M104,160l8,0 0,8 -8,0 0,-8z M112,160l8,0 0,8 -8,0 0,-8z M128,160l8,0 0,8 -8,0 0,-8z M152,160l8,0 0,8 -8,0 0,-8z M176,160l8,0 0,8 -8,0 0,-8z M184,160l8,0 0,8 -8,0 0,-8z M192,160l8,0 0,8 -8,0 0,-8z M208,160l8,0 0,8 -8,0 0,-8z M216,160l8,0 0,8 -8,0 0,-8z M280,160l8,0 0,8 -8,0 0,-8z M288,160l8,0 0,8 -8,0 0,-8z M304,160l8,0 0,8 -8,0 0,-8z M312,160l8,0 0,8 -8,0 0,-8z M320,160l8,0 0,8 -8,0 0,-8z M328,160l8,0 0,8 -8,0 0,-8z M344,160l8,0 0,8 -8,0 0,-8z M368,160l8,0 0,8 -8,0 0,-8z M384,160l8,0 0,8 -8,0 0,-8z M416,160l8,0 0,8 -8,0 0,-8z M432,160l8,0 0,8 -8,0 0,-8z M464,160l8,0 0,8 -8,0 0,-8z M472,160l8,0 0,8 -8,0 0,-8z M496,160l8,0 0,8 -8,0 0,-8z M520,160l8,0 0,8 -8,0 0,-8z M536,160l8,0 0,8 -8,0 0,-8z M560,160l8,0 0,8 -8,0 0,-8z M584,160l8,0 0,8 -8,0 0,-8z M592,160l8,0 0,8 -8,0 0,-8z M608,160l8,0 0,8 -8,0 0,-8z M616,160l8,0 0,8 -8,0 0,-8z M624,160l8,0 0,8 -8,0 0,-8z M32,168l8,0 0,8 -8,0 0,-8z M40,168l8,0 0,8 -8,0 0,-8z M48,168l8,0 0,8 -8,0 0,-8z M56,168l8,0 0,8 -8,0 0,-8z M72,168l8,0 0,8 -8,0 0,-8z M88,168l8,0 0,8 -8,0 0,-8z M104,168l8,0 0,8 -8,0 0,-8z M112,168l8,0 0,8 -8,0 0,-8z M120,168l8,0 0,8 -8,0 0,-8z M128,168l8,0 0,8 -8,0 0,-8z M208,168l8,0 0,8 -8,0 0,-8z M256,168l8,0 0,8 -8,0 0,-8z M264,168l8,0 0,8 -8,0 0,-8z M272,168l8,0 0,8 -8,0 0,-8z M280,168l8,0 0,8 -8,0 0,-8z M312,168l8,0 0,8 -8,0 0,-8z M336,168l8,0 0,8 -8,0 0,-8z M360,168l8,0 0,8 -8,0 0,-8z M376,168l8,0 0,8 -8,0 0,-8z M384,168l8,0 0,8 -8,0 0,-8z M392,168l8,0 0,8 -8,0 0,-8z M400,168l8,0 0,8 -8,0 0,-8z M416,168l8,0 0,8 -8,0 0,-8z M424,168l8,0 0,8 -8,0 0,-8z M432,168l8,0 0,8 -8,0 0,-8z M472,168l8,0 0,8 -8,0 0,-8z M488,168l8,0 0,8 -8,0 0,-8z M512,168l8,0 0,8 -8,0 0,-8z M520,168l8,0 0,8 -8,0 0,-8z M528,168l8,0 0,8 -8,0 0,-8z M544,168l8,0 0,8 -8,0 0,-8z M560,168l8,0 0,8 -8,0 0,-8z M568,168l8,0 0,8 -8,0 0,-8z M576,168l8,0 0,8 -8,0 0,-8z M584,168l8,0 0,8 -8,0 0,-8z M592,168l8,0 0,8 -8,0 0,-8z M600,168l8,0 0,8 -8,0 0,-8z M608,168l8,0 0,8 -8,0 0,-8z M616,168l8,0 0,8 -8,0 0,-8z M624,168l8,0 0,8 -8,0 0,-8z M632,168l8,0 0,8 -8,0 0,-8z M640,168l8,0 0,8 -8,0 0,-8z M56,176l8,0 0,8 -8,0 0,-8z M80,176l8,0 0,8 -8,0 0,-8z M96,176l8,0 0,8 -8,0 0,-8z M104,176l8,0 0,8 -8,0 0,-8z M120,176l8,0 0,8 -8,0 0,-8z M128,176l8,0 0,8 -8,0 0,-8z M136,176l8,0 0,8 -8,0 0,-8z M144,176l8,0 0,8 -8,0 0,-8z M152,176l8,0 0,8 -8,0 0,-8z M160,176l8,0 0,8 -8,0 0,-8z M168,176l8,0 0,8 -8,0 0,-8z M176,176l8,0 0,8 -8,0 0,-8z M184,176l8,0 0,8 -8,0 0,-8z M192,176l8,0 0,8 -8,0 0,-8z M208,176l8,0 0,8 -8,0 0,-8z M216,176l8,0 0,8 -8,0 0,-8z M224,176l8,0 0,8 -8,0 0,-8z M240,176l8,0 0,8 -8,0 0,-8z M248,176l8,0 0,8 -8,0 0,-8z M256,176l8,0 0,8 -8,0 0,-8z M272,176l8,0 0,8 -8,0 0,-8z M288,176l8,0 0,8 -8,0 0,-8z M312,176l8,0 0,8 -8,0 0,-8z M368,176l8,0 0,8 -8,0 0,-8z M376,176l8,0 0,8 -8,0 0,-8z M400,176l8,0 0,8 -8,0 0,-8z M424,176l8,0 0,8 -8,0 0,-8z M432,176l8,0 0,8 -8,0 0,-8z M448,176l8,0 0,8 -8,0 0,-8z M456,176l8,0 0,8 -8,0 0,-8z M472,176l8,0 0,8 -8,0 0,-8z M480,176l8,0 0,8 -8,0 0,-8z M504,176l8,0 0,8 -8,0 0,-8z M536,176l8,0 0,8 -8,0 0,-8z M560,176l8,0 0,8 -8,0 0,-8z M584,176l8,0 0,8 -8,0 0,-8z M616,176l8,0 0,8 -8,0 0,-8z M624,176l8,0 0,8 -8,0 0,-8z M632,176l8,0 0,8 -8,0 0,-8z M640,176l8,0 0,8 -8,0 0,-8z M32,184l8,0 0,8 -8,0 0,-8z M56,184l8,0 0,8 -8,0 0,-8z M72,184l8,0 0,8 -8,0 0,-8z M88,184l8,0 0,8 -8,0 0,-8z M96,184l8,0 0,8 -8,0 0,-8z M104,184l8,0 0,8 -8,0 0,-8z M112,184l8,0 0,8 -8,0 0,-8z M120,184l8,0 0,8 -8,0 0,-8z M160,184l8,0 0,8 -8,0 0,-8z M168,184l8,0 0,8 -8,0 0,-8z M192,184l8,0 0,8 -8,0 0,-8z M216,184l8,0 0,8 -8,0 0,-8z M224,184l8,0 0,8 -8,0 0,-8z M240,184l8,0 0,8 -8,0 0,-8z M288,184l8,0 0,8 -8,0 0,-8z M296,184l8,0 0,8 -8,0 0,-8z M336,184l8,0 0,8 -8,0 0,-8z M344,184l8,0 0,8 -8,0 0,-8z M360,184l8,0 0,8 -8,0 0,-8z M368,184l8,0 0,8 -8,0 0,-8z M384,184l8,0 0,8 -8,0 0,-8z M408,184l8,0 0,8 -8,0 0,-8z M424,184l8,0 0,8 -8,0 0,-8z M440,184l8,0 0,8 -8,0 0,-8z M480,184l8,0 0,8 -8,0 0,-8z M488,184l8,0 0,8 -8,0 0,-8z M512,184l8,0 0,8 -8,0 0,-8z M544,184l8,0 0,8 -8,0 0,-8z M560,184l8,0 0,8 -8,0 0,-8z M576,184l8,0 0,8 -8,0 0,-8z M584,184l8,0 0,8 -8,0 0,-8z M592,184l8,0 0,8 -8,0 0,-8z M632,184l8,0 0,8 -8,0 0,-8z M640,184l8,0 0,8 -8,0 0,-8z M32,192l8,0 0,8 -8,0 0,-8z M40,192l8,0 0,8 -8,0 0,-8z M48,192l8,0 0,8 -8,0 0,-8z M56,192l8,0 0,8 -8,0 0,-8z M72,192l8,0 0,8 -8,0 0,-8z M80,192l8,0 0,8 -8,0 0,-8z M96,192l8,0 0,8 -8,0 0,-8z M104,192l8,0 0,8 -8,0 0,-8z M120,192l8,0 0,8 -8,0 0,-8z M128,192l8,0 0,8 -8,0 0,-8z M152,192l8,0 0,8 -8,0 0,-8z M160,192l8,0 0,8 -8,0 0,-8z M192,192l8,0 0,8 -8,0 0,-8z M208,192l8,0 0,8 -8,0 0,-8z M240,192l8,0 0,8 -8,0 0,-8z M248,192l8,0 0,8 -8,0 0,-8z M296,192l8,0 0,8 -8,0 0,-8z M304,192l8,0 0,8 -8,0 0,-8z M320,192l8,0 0,8 -8,0 0,-8z M328,192l8,0 0,8 -8,0 0,-8z M336,192l8,0 0,8 -8,0 0,-8z M344,192l8,0 0,8 -8,0 0,-8z M352,192l8,0 0,8 -8,0 0,-8z M360,192l8,0 0,8 -8,0 0,-8z M376,192l8,0 0,8 -8,0 0,-8z M392,192l8,0 0,8 -8,0 0,-8z M408,192l8,0 0,8 -8,0 0,-8z M416,192l8,0 0,8 -8,0 0,-8z M424,192l8,0 0,8 -8,0 0,-8z M448,192l8,0 0,8 -8,0 0,-8z M480,192l8,0 0,8 -8,0 0,-8z M488,192l8,0 0,8 -8,0 0,-8z M496,192l8,0 0,8 -8,0 0,-8z M504,192l8,0 0,8 -8,0 0,-8z M528,192l8,0 0,8 -8,0 0,-8z M560,192l8,0 0,8 -8,0 0,-8z M568,192l8,0 0,8 -8,0 0,-8z M584,192l8,0 0,8 -8,0 0,-8z M592,192l8,0 0,8 -8,0 0,-8z M600,192l8,0 0,8 -8,0 0,-8z M616,192l8,0 0,8 -8,0 0,-8z M632,192l8,0 0,8 -8,0 0,-8z M40,200l8,0 0,8 -8,0 0,-8z M88,200l8,0 0,8 -8,0 0,-8z M104,200l8,0 0,8 -8,0 0,-8z M112,200l8,0 0,8 -8,0 0,-8z M128,200l8,0 0,8 -8,0 0,-8z M136,200l8,0 0,8 -8,0 0,-8z M152,200l8,0 0,8 -8,0 0,-8z M168,200l8,0 0,8 -8,0 0,-8z M200,200l8,0 0,8 -8,0 0,-8z M208,200l8,0 0,8 -8,0 0,-8z M216,200l8,0 0,8 -8,0 0,-8z M224,200l8,0 0,8 -8,0 0,-8z M248,200l8,0 0,8 -8,0 0,-8z M280,200l8,0 0,8 -8,0 0,-8z M288,200l8,0 0,8 -8,0 0,-8z M312,200l8,0 0,8 -8,0 0,-8z M320,200l8,0 0,8 -8,0 0,-8z M344,200l8,0 0,8 -8,0 0,-8z M352,200l8,0 0,8 -8,0 0,-8z M392,200l8,0 0,8 -8,0 0,-8z M400,200l8,0 0,8 -8,0 0,-8z M416,200l8,0 0,8 -8,0 0,-8z M424,200l8,0 0,8 -8,0 0,-8z M440,200l8,0 0,8 -8,0 0,-8z M456,200l8,0 0,8 -8,0 0,-8z M488,200l8,0 0,8 -8,0 0,-8z M496,200l8,0 0,8 -8,0 0,-8z M504,200l8,0 0,8 -8,0 0,-8z M520,200l8,0 0,8 -8,0 0,-8z M544,200l8,0 0,8 -8,0 0,-8z M552,200l8,0 0,8 -8,0 0,-8z M568,200l8,0 0,8 -8,0 0,-8z M584,200l8,0 0,8 -8,0 0,-8z M600,200l8,0 0,8 -8,0 0,-8z M608,200l8,0 0,8 -8,0 0,-8z M616,200l8,0 0,8 -8,0 0,-8z M632,200l8,0 0,8 -8,0 0,-8z M640,200l8,0 0,8 -8,0 0,-8z M32,208l8,0 0,8 -8,0 0,-8z M48,208l8,0 0,8 -8,0 0,-8z M56,208l8,0 0,8 -8,0 0,-8z M64,208l8,0 0,8 -8,0 0,-8z M72,208l8,0 0,8 -8,0 0,-8z M80,208l8,0 0,8 -8,0 0,-8z M104,208l8,0 0,8 -8,0 0,-8z M176,208l8,0 0,8 -8,0 0,-8z M184,208l8,0 0,8 -8,0 0,-8z M192,208l8,0 0,8 -8,0 0,-8z M200,208l8,0 0,8 -8,0 0,-8z M232,208l8,0 0,8 -8,0 0,-8z M248,208l8,0 0,8 -8,0 0,-8z M256,208l8,0 0,8 -8,0 0,-8z M264,208l8,0 0,8 -8,0 0,-8z M272,208l8,0 0,8 -8,0 0,-8z M280,208l8,0 0,8 -8,0 0,-8z M288,208l8,0 0,8 -8,0 0,-8z M296,208l8,0 0,8 -8,0 0,-8z M312,208l8,0 0,8 -8,0 0,-8z M320,208l8,0 0,8 -8,0 0,-8z M352,208l8,0 0,8 -8,0 0,-8z M376,208l8,0 0,8 -8,0 0,-8z M392,208l8,0 0,8 -8,0 0,-8z M440,208l8,0 0,8 -8,0 0,-8z M472,208l8,0 0,8 -8,0 0,-8z M480,208l8,0 0,8 -8,0 0,-8z M496,208l8,0 0,8 -8,0 0,-8z M504,208l8,0 0,8 -8,0 0,-8z M512,208l8,0 0,8 -8,0 0,-8z M520,208l8,0 0,8 -8,0 0,-8z M544,208l8,0 0,8 -8,0 0,-8z M552,208l8,0 0,8 -8,0 0,-8z M560,208l8,0 0,8 -8,0 0,-8z M568,208l8,0 0,8 -8,0 0,-8z M584,208l8,0 0,8 -8,0 0,-8z M616,208l8,0 0,8 -8,0 0,-8z M632,208l8,0 0,8 -8,0 0,-8z M32,216l8,0 0,8 -8,0 0,-8z M40,216l8,0 0,8 -8,0 0,-8z M56,216l8,0 0,8 -8,0 0,-8z M96,216l8,0 0,8 -8,0 0,-8z M168,216l8,0 0,8 -8,0 0,-8z M184,216l8,0 0,8 -8,0 0,-8z M200,216l8,0 0,8 -8,0 0,-8z M208,216l8,0 0,8 -8,0 0,-8z M216,216l8,0 0,8 -8,0 0,-8z M224,216l8,0 0,8 -8,0 0,-8z M232,216l8,0 0,8 -8,0 0,-8z M256,216l8,0 0,8 -8,0 0,-8z M272,216l8,0 0,8 -8,0 0,-8z M288,216l8,0 0,8 -8,0 0,-8z M296,216l8,0 0,8 -8,0 0,-8z M304,216l8,0 0,8 -8,0 0,-8z M312,216l8,0 0,8 -8,0 0,-8z M320,216l8,0 0,8 -8,0 0,-8z M328,216l8,0 0,8 -8,0 0,-8z M352,216l8,0 0,8 -8,0 0,-8z M368,216l8,0 0,8 -8,0 0,-8z M392,216l8,0 0,8 -8,0 0,-8z M424,216l8,0 0,8 -8,0 0,-8z M432,216l8,0 0,8 -8,0 0,-8z M448,216l8,0 0,8 -8,0 0,-8z M512,216l8,0 0,8 -8,0 0,-8z M520,216l8,0 0,8 -8,0 0,-8z M528,216l8,0 0,8 -8,0 0,-8z M536,216l8,0 0,8 -8,0 0,-8z M544,216l8,0 0,8 -8,0 0,-8z M552,216l8,0 0,8 -8,0 0,-8z M576,216l8,0 0,8 -8,0 0,-8z M592,216l8,0 0,8 -8,0 0,-8z M600,216l8,0 0,8 -8,0 0,-8z M624,216l8,0 0,8 -8,0 0,-8z M632,216l8,0 0,8 -8,0 0,-8z M640,216l8,0 0,8 -8,0 0,-8z M40,224l8,0 0,8 -8,0 0,-8z M48,224l8,0 0,8 -8,0 0,-8z M56,224l8,0 0,8 -8,0 0,-8z M64,224l8,0 0,8 -8,0 0,-8z M72,224l8,0 0,8 -8,0 0,-8z M80,224l8,0 0,8 -8,0 0,-8z M88,224l8,0 0,8 -8,0 0,-8z M96,224l8,0 0,8 -8,0 0,-8z M104,224l8,0 0,8 -8,0 0,-8z M136,224l8,0 0,8 -8,0 0,-8z M144,224l8,0 0,8 -8,0 0,-8z M152,224l8,0 0,8 -8,0 0,-8z M160,224l8,0 0,8 -8,0 0,-8z M176,224l8,0 0,8 -8,0 0,-8z M184,224l8,0 0,8 -8,0 0,-8z M200,224l8,0 0,8 -8,0 0,-8z M224,224l8,0 0,8 -8,0 0,-8z M232,224l8,0 0,8 -8,0 0,-8z M240,224l8,0 0,8 -8,0 0,-8z M248,224l8,0 0,8 -8,0 0,-8z M256,224l8,0 0,8 -8,0 0,-8z M288,224l8,0 0,8 -8,0 0,-8z M312,224l8,0 0,8 -8,0 0,-8z M320,224l8,0 0,8 -8,0 0,-8z M336,224l8,0 0,8 -8,0 0,-8z M352,224l8,0 0,8 -8,0 0,-8z M368,224l8,0 0,8 -8,0 0,-8z M384,224l8,0 0,8 -8,0 0,-8z M400,224l8,0 0,8 -8,0 0,-8z M408,224l8,0 0,8 -8,0 0,-8z M416,224l8,0 0,8 -8,0 0,-8z M424,224l8,0 0,8 -8,0 0,-8z M432,224l8,0 0,8 -8,0 0,-8z M480,224l8,0 0,8 -8,0 0,-8z M488,224l8,0 0,8 -8,0 0,-8z M496,224l8,0 0,8 -8,0 0,-8z M528,224l8,0 0,8 -8,0 0,-8z M552,224l8,0 0,8 -8,0 0,-8z M568,224l8,0 0,8 -8,0 0,-8z M576,224l8,0 0,8 -8,0 0,-8z M584,224l8,0 0,8 -8,0 0,-8z M592,224l8,0 0,8 -8,0 0,-8z M600,224l8,0 0,8 -8,0 0,-8z M608,224l8,0 0,8 -8,0 0,-8z M640,224l8,0 0,8 -8,0 0,-8z M56,232l8,0 0,8 -8,0 0,-8z M64,232l8,0 0,8 -8,0 0,-8z M96,232l8,0 0,8 -8,0 0,-8z M128,232l8,0 0,8 -8,0 0,-8z M160,232l8,0 0,8 -8,0 0,-8z M216,232l8,0 0,8 -8,0 0,-8z M224,232l8,0 0,8 -8,0 0,-8z M256,232l8,0 0,8 -8,0 0,-8z M280,232l8,0 0,8 -8,0 0,-8z M304,232l8,0 0,8 -8,0 0,-8z M328,232l8,0 0,8 -8,0 0,-8z M376,232l8,0 0,8 -8,0 0,-8z M384,232l8,0 0,8 -8,0 0,-8z M392,232l8,0 0,8 -8,0 0,-8z M400,232l8,0 0,8 -8,0 0,-8z M432,232l8,0 0,8 -8,0 0,-8z M440,232l8,0 0,8 -8,0 0,-8z M448,232l8,0 0,8 -8,0 0,-8z M456,232l8,0 0,8 -8,0 0,-8z M472,232l8,0 0,8 -8,0 0,-8z M480,232l8,0 0,8 -8,0 0,-8z M488,232l8,0 0,8 -8,0 0,-8z M496,232l8,0 0,8 -8,0 0,-8z M504,232l8,0 0,8 -8,0 0,-8z M512,232l8,0 0,8 -8,0 0,-8z M528,232l8,0 0,8 -8,0 0,-8z M536,232l8,0 0,8 -8,0 0,-8z M552,232l8,0 0,8 -8,0 0,-8z M568,232l8,0 0,8 -8,0 0,-8z M576,232l8,0 0,8 -8,0 0,-8z M608,232l8,0 0,8 -8,0 0,-8z M616,232l8,0 0,8 -8,0 0,-8z M640,232l8,0 0,8 -8,0 0,-8z M48,240l8,0 0,8 -8,0 0,-8z M56,240l8,0 0,8 -8,0 0,-8z M64,240l8,0 0,8 -8,0 0,-8z M80,240l8,0 0,8 -8,0 0,-8z M96,240l8,0 0,8 -8,0 0,-8z M128,240l8,0 0,8 -8,0 0,-8z M144,240l8,0 0,8 -8,0 0,-8z M152,240l8,0 0,8 -8,0 0,-8z M160,240l8,0 0,8 -8,0 0,-8z M184,240l8,0 0,8 -8,0 0,-8z M192,240l8,0 0,8 -8,0 0,-8z M200,240l8,0 0,8 -8,0 0,-8z M208,240l8,0 0,8 -8,0 0,-8z M224,240l8,0 0,8 -8,0 0,-8z M240,240l8,0 0,8 -8,0 0,-8z M256,240l8,0 0,8 -8,0 0,-8z M264,240l8,0 0,8 -8,0 0,-8z M272,240l8,0 0,8 -8,0 0,-8z M296,240l8,0 0,8 -8,0 0,-8z M304,240l8,0 0,8 -8,0 0,-8z M312,240l8,0 0,8 -8,0 0,-8z M328,240l8,0 0,8 -8,0 0,-8z M352,240l8,0 0,8 -8,0 0,-8z M360,240l8,0 0,8 -8,0 0,-8z M368,240l8,0 0,8 -8,0 0,-8z M376,240l8,0 0,8 -8,0 0,-8z M392,240l8,0 0,8 -8,0 0,-8z M400,240l8,0 0,8 -8,0 0,-8z M416,240l8,0 0,8 -8,0 0,-8z M432,240l8,0 0,8 -8,0 0,-8z M440,240l8,0 0,8 -8,0 0,-8z M448,240l8,0 0,8 -8,0 0,-8z M456,240l8,0 0,8 -8,0 0,-8z M472,240l8,0 0,8 -8,0 0,-8z M488,240l8,0 0,8 -8,0 0,-8z M512,240l8,0 0,8 -8,0 0,-8z M536,240l8,0 0,8 -8,0 0,-8z M560,240l8,0 0,8 -8,0 0,-8z M576,240l8,0 0,8 -8,0 0,-8z M592,240l8,0 0,8 -8,0 0,-8z M608,240l8,0 0,8 -8,0 0,-8z M616,240l8,0 0,8 -8,0 0,-8z M632,240l8,0 0,8 -8,0 0,-8z M640,240l8,0 0,8 -8,0 0,-8z M40,248l8,0 0,8 -8,0 0,-8z M48,248l8,0 0,8 -8,0 0,-8z M64,248l8,0 0,8 -8,0 0,-8z M96,248l8,0 0,8 -8,0 0,-8z M104,248l8,0 0,8 -8,0 0,-8z M128,248l8,0 0,8 -8,0 0,-8z M136,248l8,0 0,8 -8,0 0,-8z M152,248l8,0 0,8 -8,0 0,-8z M160,248l8,0 0,8 -8,0 0,-8z M168,248l8,0 0,8 -8,0 0,-8z M184,248l8,0 0,8 -8,0 0,-8z M200,248l8,0 0,8 -8,0 0,-8z M208,248l8,0 0,8 -8,0 0,-8z M224,248l8,0 0,8 -8,0 0,-8z M256,248l8,0 0,8 -8,0 0,-8z M264,248l8,0 0,8 -8,0 0,-8z M280,248l8,0 0,8 -8,0 0,-8z M288,248l8,0 0,8 -8,0 0,-8z M304,248l8,0 0,8 -8,0 0,-8z M312,248l8,0 0,8 -8,0 0,-8z M320,248l8,0 0,8 -8,0 0,-8z M344,248l8,0 0,8 -8,0 0,-8z M352,248l8,0 0,8 -8,0 0,-8z M376,248l8,0 0,8 -8,0 0,-8z M392,248l8,0 0,8 -8,0 0,-8z M400,248l8,0 0,8 -8,0 0,-8z M432,248l8,0 0,8 -8,0 0,-8z M448,248l8,0 0,8 -8,0 0,-8z M472,248l8,0 0,8 -8,0 0,-8z M480,248l8,0 0,8 -8,0 0,-8z M504,248l8,0 0,8 -8,0 0,-8z M512,248l8,0 0,8 -8,0 0,-8z M528,248l8,0 0,8 -8,0 0,-8z M544,248l8,0 0,8 -8,0 0,-8z M552,248l8,0 0,8 -8,0 0,-8z M576,248l8,0 0,8 -8,0 0,-8z M608,248l8,0 0,8 -8,0 0,-8z M632,248l8,0 0,8 -8,0 0,-8z M32,256l8,0 0,8 -8,0 0,-8z M40,256l8,0 0,8 -8,0 0,-8z M48,256l8,0 0,8 -8,0 0,-8z M64,256l8,0 0,8 -8,0 0,-8z M72,256l8,0 0,8 -8,0 0,-8z M80,256l8,0 0,8 -8,0 0,-8z M88,256l8,0 0,8 -8,0 0,-8z M96,256l8,0 0,8 -8,0 0,-8z M128,256l8,0 0,8 -8,0 0,-8z M136,256l8,0 0,8 -8,0 0,-8z M144,256l8,0 0,8 -8,0 0,-8z M160,256l8,0 0,8 -8,0 0,-8z M176,256l8,0 0,8 -8,0 0,-8z M192,256l8,0 0,8 -8,0 0,-8z M200,256l8,0 0,8 -8,0 0,-8z M208,256l8,0 0,8 -8,0 0,-8z M216,256l8,0 0,8 -8,0 0,-8z M224,256l8,0 0,8 -8,0 0,-8z M232,256l8,0 0,8 -8,0 0,-8z M240,256l8,0 0,8 -8,0 0,-8z M248,256l8,0 0,8 -8,0 0,-8z M256,256l8,0 0,8 -8,0 0,-8z M288,256l8,0 0,8 -8,0 0,-8z M304,256l8,0 0,8 -8,0 0,-8z M320,256l8,0 0,8 -8,0 0,-8z M344,256l8,0 0,8 -8,0 0,-8z M360,256l8,0 0,8 -8,0 0,-8z M384,256l8,0 0,8 -8,0 0,-8z M392,256l8,0 0,8 -8,0 0,-8z M400,256l8,0 0,8 -8,0 0,-8z M408,256l8,0 0,8 -8,0 0,-8z M416,256l8,0 0,8 -8,0 0,-8z M424,256l8,0 0,8 -8,0 0,-8z M432,256l8,0 0,8 -8,0 0,-8z M448,256l8,0 0,8 -8,0 0,-8z M456,256l8,0 0,8 -8,0 0,-8z M472,256l8,0 0,8 -8,0 0,-8z M512,256l8,0 0,8 -8,0 0,-8z M560,256l8,0 0,8 -8,0 0,-8z M568,256l8,0 0,8 -8,0 0,-8z M576,256l8,0 0,8 -8,0 0,-8z M584,256l8,0 0,8 -8,0 0,-8z M592,256l8,0 0,8 -8,0 0,-8z M600,256l8,0 0,8 -8,0 0,-8z M608,256l8,0 0,8 -8,0 0,-8z M616,256l8,0 0,8 -8,0 0,-8z M632,256l8,0 0,8 -8,0 0,-8z M640,256l8,0 0,8 -8,0 0,-8z M56,264l8,0 0,8 -8,0 0,-8z M88,264l8,0 0,8 -8,0 0,-8z M128,264l8,0 0,8 -8,0 0,-8z M136,264l8,0 0,8 -8,0 0,-8z M144,264l8,0 0,8 -8,0 0,-8z M216,264l8,0 0,8 -8,0 0,-8z M224,264l8,0 0,8 -8,0 0,-8z M232,264l8,0 0,8 -8,0 0,-8z M240,264l8,0 0,8 -8,0 0,-8z M248,264l8,0 0,8 -8,0 0,-8z M264,264l8,0 0,8 -8,0 0,-8z M280,264l8,0 0,8 -8,0 0,-8z M288,264l8,0 0,8 -8,0 0,-8z M312,264l8,0 0,8 -8,0 0,-8z M336,264l8,0 0,8 -8,0 0,-8z M352,264l8,0 0,8 -8,0 0,-8z M360,264l8,0 0,8 -8,0 0,-8z M376,264l8,0 0,8 -8,0 0,-8z M384,264l8,0 0,8 -8,0 0,-8z M392,264l8,0 0,8 -8,0 0,-8z M408,264l8,0 0,8 -8,0 0,-8z M424,264l8,0 0,8 -8,0 0,-8z M432,264l8,0 0,8 -8,0 0,-8z M440,264l8,0 0,8 -8,0 0,-8z M448,264l8,0 0,8 -8,0 0,-8z M464,264l8,0 0,8 -8,0 0,-8z M480,264l8,0 0,8 -8,0 0,-8z M488,264l8,0 0,8 -8,0 0,-8z M512,264l8,0 0,8 -8,0 0,-8z M520,264l8,0 0,8 -8,0 0,-8z M544,264l8,0 0,8 -8,0 0,-8z M568,264l8,0 0,8 -8,0 0,-8z M584,264l8,0 0,8 -8,0 0,-8z M592,264l8,0 0,8 -8,0 0,-8z M616,264l8,0 0,8 -8,0 0,-8z M640,264l8,0 0,8 -8,0 0,-8z M40,272l8,0 0,8 -8,0 0,-8z M80,272l8,0 0,8 -8,0 0,-8z M88,272l8,0 0,8 -8,0 0,-8z M96,272l8,0 0,8 -8,0 0,-8z M104,272l8,0 0,8 -8,0 0,-8z M112,272l8,0 0,8 -8,0 0,-8z M144,272l8,0 0,8 -8,0 0,-8z M152,272l8,0 0,8 -8,0 0,-8z M168,272l8,0 0,8 -8,0 0,-8z M184,272l8,0 0,8 -8,0 0,-8z M200,272l8,0 0,8 -8,0 0,-8z M208,272l8,0 0,8 -8,0 0,-8z M224,272l8,0 0,8 -8,0 0,-8z M232,272l8,0 0,8 -8,0 0,-8z M272,272l8,0 0,8 -8,0 0,-8z M312,272l8,0 0,8 -8,0 0,-8z M320,272l8,0 0,8 -8,0 0,-8z M336,272l8,0 0,8 -8,0 0,-8z M344,272l8,0 0,8 -8,0 0,-8z M368,272l8,0 0,8 -8,0 0,-8z M376,272l8,0 0,8 -8,0 0,-8z M384,272l8,0 0,8 -8,0 0,-8z M392,272l8,0 0,8 -8,0 0,-8z M400,272l8,0 0,8 -8,0 0,-8z M408,272l8,0 0,8 -8,0 0,-8z M520,272l8,0 0,8 -8,0 0,-8z M536,272l8,0 0,8 -8,0 0,-8z M552,272l8,0 0,8 -8,0 0,-8z M568,272l8,0 0,8 -8,0 0,-8z M600,272l8,0 0,8 -8,0 0,-8z M608,272l8,0 0,8 -8,0 0,-8z M624,272l8,0 0,8 -8,0 0,-8z M632,272l8,0 0,8 -8,0 0,-8z M640,272l8,0 0,8 -8,0 0,-8z M48,280l8,0 0,8 -8,0 0,-8z M56,280l8,0 0,8 -8,0 0,-8z M72,280l8,0 0,8 -8,0 0,-8z M88,280l8,0 0,8 -8,0 0,-8z M120,280l8,0 0,8 -8,0 0,-8z M168,280l8,0 0,8 -8,0 0,-8z M184,280l8,0 0,8 -8,0 0,-8z M216,280l8,0 0,8 -8,0 0,-8z M224,280l8,0 0,8 -8,0 0,-8z M232,280l8,0 0,8 -8,0 0,-8z M240,280l8,0 0,8 -8,0 0,-8z M256,280l8,0 0,8 -8,0 0,-8z M264,280l8,0 0,8 -8,0 0,-8z M280,280l8,0 0,8 -8,0 0,-8z M296,280l8,0 0,8 -8,0 0,-8z M360,280l8,0 0,8 -8,0 0,-8z M384,280l8,0 0,8 -8,0 0,-8z M408,280l8,0 0,8 -8,0 0,-8z M416,280l8,0 0,8 -8,0 0,-8z M424,280l8,0 0,8 -8,0 0,-8z M432,280l8,0 0,8 -8,0 0,-8z M440,280l8,0 0,8 -8,0 0,-8z M448,280l8,0 0,8 -8,0 0,-8z M456,280l8,0 0,8 -8,0 0,-8z M464,280l8,0 0,8 -8,0 0,-8z M480,280l8,0 0,8 -8,0 0,-8z M488,280l8,0 0,8 -8,0 0,-8z M512,280l8,0 0,8 -8,0 0,-8z M552,280l8,0 0,8 -8,0 0,-8z M592,280l8,0 0,8 -8,0 0,-8z M616,280l8,0 0,8 -8,0 0,-8z M632,280l8,0 0,8 -8,0 0,-8z M640,280l8,0 0,8 -8,0 0,-8z M32,288l8,0 0,8 -8,0 0,-8z M72,288l8,0 0,8 -8,0 0,-8z M80,288l8,0 0,8 -8,0 0,-8z M88,288l8,0 0,8 -8,0 0,-8z M96,288l8,0 0,8 -8,0 0,-8z M112,288l8,0 0,8 -8,0 0,-8z M120,288l8,0 0,8 -8,0 0,-8z M128,288l8,0 0,8 -8,0 0,-8z M136,288l8,0 0,8 -8,0 0,-8z M200,288l8,0 0,8 -8,0 0,-8z M216,288l8,0 0,8 -8,0 0,-8z M232,288l8,0 0,8 -8,0 0,-8z M256,288l8,0 0,8 -8,0 0,-8z M272,288l8,0 0,8 -8,0 0,-8z M280,288l8,0 0,8 -8,0 0,-8z M304,288l8,0 0,8 -8,0 0,-8z M312,288l8,0 0,8 -8,0 0,-8z M320,288l8,0 0,8 -8,0 0,-8z M336,288l8,0 0,8 -8,0 0,-8z M352,288l8,0 0,8 -8,0 0,-8z M368,288l8,0 0,8 -8,0 0,-8z M376,288l8,0 0,8 -8,0 0,-8z M392,288l8,0 0,8 -8,0 0,-8z M400,288l8,0 0,8 -8,0 0,-8z M408,288l8,0 0,8 -8,0 0,-8z M416,288l8,0 0,8 -8,0 0,-8z M424,288l8,0 0,8 -8,0 0,-8z M432,288l8,0 0,8 -8,0 0,-8z M456,288l8,0 0,8 -8,0 0,-8z M480,288l8,0 0,8 -8,0 0,-8z M496,288l8,0 0,8 -8,0 0,-8z M504,288l8,0 0,8 -8,0 0,-8z M544,288l8,0 0,8 -8,0 0,-8z M552,288l8,0 0,8 -8,0 0,-8z M560,288l8,0 0,8 -8,0 0,-8z M568,288l8,0 0,8 -8,0 0,-8z M576,288l8,0 0,8 -8,0 0,-8z M608,288l8,0 0,8 -8,0 0,-8z M624,288l8,0 0,8 -8,0 0,-8z M48,296l8,0 0,8 -8,0 0,-8z M56,296l8,0 0,8 -8,0 0,-8z M72,296l8,0 0,8 -8,0 0,-8z M96,296l8,0 0,8 -8,0 0,-8z M112,296l8,0 0,8 -8,0 0,-8z M128,296l8,0 0,8 -8,0 0,-8z M144,296l8,0 0,8 -8,0 0,-8z M152,296l8,0 0,8 -8,0 0,-8z M168,296l8,0 0,8 -8,0 0,-8z M176,296l8,0 0,8 -8,0 0,-8z M184,296l8,0 0,8 -8,0 0,-8z M216,296l8,0 0,8 -8,0 0,-8z M224,296l8,0 0,8 -8,0 0,-8z M240,296l8,0 0,8 -8,0 0,-8z M256,296l8,0 0,8 -8,0 0,-8z M264,296l8,0 0,8 -8,0 0,-8z M280,296l8,0 0,8 -8,0 0,-8z M360,296l8,0 0,8 -8,0 0,-8z M384,296l8,0 0,8 -8,0 0,-8z M392,296l8,0 0,8 -8,0 0,-8z M400,296l8,0 0,8 -8,0 0,-8z M440,296l8,0 0,8 -8,0 0,-8z M456,296l8,0 0,8 -8,0 0,-8z M472,296l8,0 0,8 -8,0 0,-8z M488,296l8,0 0,8 -8,0 0,-8z M496,296l8,0 0,8 -8,0 0,-8z M504,296l8,0 0,8 -8,0 0,-8z M520,296l8,0 0,8 -8,0 0,-8z M528,296l8,0 0,8 -8,0 0,-8z M544,296l8,0 0,8 -8,0 0,-8z M552,296l8,0 0,8 -8,0 0,-8z M560,296l8,0 0,8 -8,0 0,-8z M568,296l8,0 0,8 -8,0 0,-8z M584,296l8,0 0,8 -8,0 0,-8z M592,296l8,0 0,8 -8,0 0,-8z M616,296l8,0 0,8 -8,0 0,-8z M624,296l8,0 0,8 -8,0 0,-8z M640,296l8,0 0,8 -8,0 0,-8z M72,304l8,0 0,8 -8,0 0,-8z M80,304l8,0 0,8 -8,0 0,-8z M104,304l8,0 0,8 -8,0 0,-8z M120,304l8,0 0,8 -8,0 0,-8z M128,304l8,0 0,8 -8,0 0,-8z M136,304l8,0 0,8 -8,0 0,-8z M144,304l8,0 0,8 -8,0 0,-8z M152,304l8,0 0,8 -8,0 0,-8z M168,304l8,0 0,8 -8,0 0,-8z M184,304l8,0 0,8 -8,0 0,-8z M200,304l8,0 0,8 -8,0 0,-8z M208,304l8,0 0,8 -8,0 0,-8z M224,304l8,0 0,8 -8,0 0,-8z M232,304l8,0 0,8 -8,0 0,-8z M240,304l8,0 0,8 -8,0 0,-8z M248,304l8,0 0,8 -8,0 0,-8z M272,304l8,0 0,8 -8,0 0,-8z M288,304l8,0 0,8 -8,0 0,-8z M320,304l8,0 0,8 -8,0 0,-8z M328,304l8,0 0,8 -8,0 0,-8z M336,304l8,0 0,8 -8,0 0,-8z M344,304l8,0 0,8 -8,0 0,-8z M352,304l8,0 0,8 -8,0 0,-8z M360,304l8,0 0,8 -8,0 0,-8z M368,304l8,0 0,8 -8,0 0,-8z M376,304l8,0 0,8 -8,0 0,-8z M384,304l8,0 0,8 -8,0 0,-8z M392,304l8,0 0,8 -8,0 0,-8z M400,304l8,0 0,8 -8,0 0,-8z M424,304l8,0 0,8 -8,0 0,-8z M432,304l8,0 0,8 -8,0 0,-8z M448,304l8,0 0,8 -8,0 0,-8z M480,304l8,0 0,8 -8,0 0,-8z M504,304l8,0 0,8 -8,0 0,-8z M512,304l8,0 0,8 -8,0 0,-8z M528,304l8,0 0,8 -8,0 0,-8z M536,304l8,0 0,8 -8,0 0,-8z M568,304l8,0 0,8 -8,0 0,-8z M576,304l8,0 0,8 -8,0 0,-8z M592,304l8,0 0,8 -8,0 0,-8z M600,304l8,0 0,8 -8,0 0,-8z M608,304l8,0 0,8 -8,0 0,-8z M616,304l8,0 0,8 -8,0 0,-8z M624,304l8,0 0,8 -8,0 0,-8z M632,304l8,0 0,8 -8,0 0,-8z M40,312l8,0 0,8 -8,0 0,-8z M56,312l8,0 0,8 -8,0 0,-8z M96,312l8,0 0,8 -8,0 0,-8z M104,312l8,0 0,8 -8,0 0,-8z M112,312l8,0 0,8 -8,0 0,-8z M128,312l8,0 0,8 -8,0 0,-8z M152,312l8,0 0,8 -8,0 0,-8z M160,312l8,0 0,8 -8,0 0,-8z M176,312l8,0 0,8 -8,0 0,-8z M192,312l8,0 0,8 -8,0 0,-8z M200,312l8,0 0,8 -8,0 0,-8z M224,312l8,0 0,8 -8,0 0,-8z M232,312l8,0 0,8 -8,0 0,-8z M248,312l8,0 0,8 -8,0 0,-8z M280,312l8,0 0,8 -8,0 0,-8z M288,312l8,0 0,8 -8,0 0,-8z M296,312l8,0 0,8 -8,0 0,-8z M328,312l8,0 0,8 -8,0 0,-8z M336,312l8,0 0,8 -8,0 0,-8z M344,312l8,0 0,8 -8,0 0,-8z M352,312l8,0 0,8 -8,0 0,-8z M384,312l8,0 0,8 -8,0 0,-8z M392,312l8,0 0,8 -8,0 0,-8z M400,312l8,0 0,8 -8,0 0,-8z M408,312l8,0 0,8 -8,0 0,-8z M424,312l8,0 0,8 -8,0 0,-8z M440,312l8,0 0,8 -8,0 0,-8z M448,312l8,0 0,8 -8,0 0,-8z M456,312l8,0 0,8 -8,0 0,-8z M488,312l8,0 0,8 -8,0 0,-8z M496,312l8,0 0,8 -8,0 0,-8z M504,312l8,0 0,8 -8,0 0,-8z M512,312l8,0 0,8 -8,0 0,-8z M528,312l8,0 0,8 -8,0 0,-8z M536,312l8,0 0,8 -8,0 0,-8z M544,312l8,0 0,8 -8,0 0,-8z M584,312l8,0 0,8 -8,0 0,-8z M608,312l8,0 0,8 -8,0 0,-8z M624,312l8,0 0,8 -8,0 0,-8z M32,320l8,0 0,8 -8,0 0,-8z M48,320l8,0 0,8 -8,0 0,-8z M64,320l8,0 0,8 -8,0 0,-8z M80,320l8,0 0,8 -8,0 0,-8z M96,320l8,0 0,8 -8,0 0,-8z M104,320l8,0 0,8 -8,0 0,-8z M144,320l8,0 0,8 -8,0 0,-8z M152,320l8,0 0,8 -8,0 0,-8z M160,320l8,0 0,8 -8,0 0,-8z M168,320l8,0 0,8 -8,0 0,-8z M184,320l8,0 0,8 -8,0 0,-8z M208,320l8,0 0,8 -8,0 0,-8z M216,320l8,0 0,8 -8,0 0,-8z M224,320l8,0 0,8 -8,0 0,-8z M240,320l8,0 0,8 -8,0 0,-8z M256,320l8,0 0,8 -8,0 0,-8z M264,320l8,0 0,8 -8,0 0,-8z M272,320l8,0 0,8 -8,0 0,-8z M280,320l8,0 0,8 -8,0 0,-8z M288,320l8,0 0,8 -8,0 0,-8z M312,320l8,0 0,8 -8,0 0,-8z M320,320l8,0 0,8 -8,0 0,-8z M328,320l8,0 0,8 -8,0 0,-8z M344,320l8,0 0,8 -8,0 0,-8z M352,320l8,0 0,8 -8,0 0,-8z M368,320l8,0 0,8 -8,0 0,-8z M376,320l8,0 0,8 -8,0 0,-8z M384,320l8,0 0,8 -8,0 0,-8z M392,320l8,0 0,8 -8,0 0,-8z M400,320l8,0 0,8 -8,0 0,-8z M408,320l8,0 0,8 -8,0 0,-8z M424,320l8,0 0,8 -8,0 0,-8z M432,320l8,0 0,8 -8,0 0,-8z M448,320l8,0 0,8 -8,0 0,-8z M464,320l8,0 0,8 -8,0 0,-8z M488,320l8,0 0,8 -8,0 0,-8z M528,320l8,0 0,8 -8,0 0,-8z M552,320l8,0 0,8 -8,0 0,-8z M584,320l8,0 0,8 -8,0 0,-8z M600,320l8,0 0,8 -8,0 0,-8z M608,320l8,0 0,8 -8,0 0,-8z M616,320l8,0 0,8 -8,0 0,-8z M640,320l8,0 0,8 -8,0 0,-8z M32,328l8,0 0,8 -8,0 0,-8z M40,328l8,0 0,8 -8,0 0,-8z M48,328l8,0 0,8 -8,0 0,-8z M88,328l8,0 0,8 -8,0 0,-8z M112,328l8,0 0,8 -8,0 0,-8z M120,328l8,0 0,8 -8,0 0,-8z M136,328l8,0 0,8 -8,0 0,-8z M144,328l8,0 0,8 -8,0 0,-8z M168,328l8,0 0,8 -8,0 0,-8z M184,328l8,0 0,8 -8,0 0,-8z M192,328l8,0 0,8 -8,0 0,-8z M200,328l8,0 0,8 -8,0 0,-8z M208,328l8,0 0,8 -8,0 0,-8z M216,328l8,0 0,8 -8,0 0,-8z M224,328l8,0 0,8 -8,0 0,-8z M232,328l8,0 0,8 -8,0 0,-8z M240,328l8,0 0,8 -8,0 0,-8z M264,328l8,0 0,8 -8,0 0,-8z M304,328l8,0 0,8 -8,0 0,-8z M312,328l8,0 0,8 -8,0 0,-8z M320,328l8,0 0,8 -8,0 0,-8z M328,328l8,0 0,8 -8,0 0,-8z M352,328l8,0 0,8 -8,0 0,-8z M384,328l8,0 0,8 -8,0 0,-8z M416,328l8,0 0,8 -8,0 0,-8z M424,328l8,0 0,8 -8,0 0,-8z M432,328l8,0 0,8 -8,0 0,-8z M448,328l8,0 0,8 -8,0 0,-8z M456,328l8,0 0,8 -8,0 0,-8z M472,328l8,0 0,8 -8,0 0,-8z M480,328l8,0 0,8 -8,0 0,-8z M488,328l8,0 0,8 -8,0 0,-8z M504,328l8,0 0,8 -8,0 0,-8z M512,328l8,0 0,8 -8,0 0,-8z M528,328l8,0 0,8 -8,0 0,-8z M552,328l8,0 0,8 -8,0 0,-8z M560,328l8,0 0,8 -8,0 0,-8z M568,328l8,0 0,8 -8,0 0,-8z M576,328l8,0 0,8 -8,0 0,-8z M608,328l8,0 0,8 -8,0 0,-8z M624,328l8,0 0,8 -8,0 0,-8z M632,328l8,0 0,8 -8,0 0,-8z M640,328l8,0 0,8 -8,0 0,-8z M40,336l8,0 0,8 -8,0 0,-8z M72,336l8,0 0,8 -8,0 0,-8z M80,336l8,0 0,8 -8,0 0,-8z M88,336l8,0 0,8 -8,0 0,-8z M112,336l8,0 0,8 -8,0 0,-8z M136,336l8,0 0,8 -8,0 0,-8z M144,336l8,0 0,8 -8,0 0,-8z M152,336l8,0 0,8 -8,0 0,-8z M176,336l8,0 0,8 -8,0 0,-8z M184,336l8,0 0,8 -8,0 0,-8z M192,336l8,0 0,8 -8,0 0,-8z M224,336l8,0 0,8 -8,0 0,-8z M240,336l8,0 0,8 -8,0 0,-8z M256,336l8,0 0,8 -8,0 0,-8z M272,336l8,0 0,8 -8,0 0,-8z M280,336l8,0 0,8 -8,0 0,-8z M296,336l8,0 0,8 -8,0 0,-8z M304,336l8,0 0,8 -8,0 0,-8z M312,336l8,0 0,8 -8,0 0,-8z M320,336l8,0 0,8 -8,0 0,-8z M344,336l8,0 0,8 -8,0 0,-8z M408,336l8,0 0,8 -8,0 0,-8z M440,336l8,0 0,8 -8,0 0,-8z M448,336l8,0 0,8 -8,0 0,-8z M456,336l8,0 0,8 -8,0 0,-8z M480,336l8,0 0,8 -8,0 0,-8z M488,336l8,0 0,8 -8,0 0,-8z M496,336l8,0 0,8 -8,0 0,-8z M528,336l8,0 0,8 -8,0 0,-8z M544,336l8,0 0,8 -8,0 0,-8z M552,336l8,0 0,8 -8,0 0,-8z M576,336l8,0 0,8 -8,0 0,-8z M584,336l8,0 0,8 -8,0 0,-8z M592,336l8,0 0,8 -8,0 0,-8z M624,336l8,0 0,8 -8,0 0,-8z M632,336l8,0 0,8 -8,0 0,-8z M40,344l8,0 0,8 -8,0 0,-8z M48,344l8,0 0,8 -8,0 0,-8z M56,344l8,0 0,8 -8,0 0,-8z M64,344l8,0 0,8 -8,0 0,-8z M72,344l8,0 0,8 -8,0 0,-8z M96,344l8,0 0,8 -8,0 0,-8z M104,344l8,0 0,8 -8,0 0,-8z M128,344l8,0 0,8 -8,0 0,-8z M136,344l8,0 0,8 -8,0 0,-8z M152,344l8,0 0,8 -8,0 0,-8z M160,344l8,0 0,8 -8,0 0,-8z M168,344l8,0 0,8 -8,0 0,-8z M176,344l8,0 0,8 -8,0 0,-8z M184,344l8,0 0,8 -8,0 0,-8z M192,344l8,0 0,8 -8,0 0,-8z M216,344l8,0 0,8 -8,0 0,-8z M224,344l8,0 0,8 -8,0 0,-8z M232,344l8,0 0,8 -8,0 0,-8z M240,344l8,0 0,8 -8,0 0,-8z M272,344l8,0 0,8 -8,0 0,-8z M304,344l8,0 0,8 -8,0 0,-8z M312,344l8,0 0,8 -8,0 0,-8z M328,344l8,0 0,8 -8,0 0,-8z M360,344l8,0 0,8 -8,0 0,-8z M384,344l8,0 0,8 -8,0 0,-8z M392,344l8,0 0,8 -8,0 0,-8z M400,344l8,0 0,8 -8,0 0,-8z M408,344l8,0 0,8 -8,0 0,-8z M416,344l8,0 0,8 -8,0 0,-8z M424,344l8,0 0,8 -8,0 0,-8z M432,344l8,0 0,8 -8,0 0,-8z M440,344l8,0 0,8 -8,0 0,-8z M448,344l8,0 0,8 -8,0 0,-8z M456,344l8,0 0,8 -8,0 0,-8z M472,344l8,0 0,8 -8,0 0,-8z M512,344l8,0 0,8 -8,0 0,-8z M544,344l8,0 0,8 -8,0 0,-8z M552,344l8,0 0,8 -8,0 0,-8z M608,344l8,0 0,8 -8,0 0,-8z M632,344l8,0 0,8 -8,0 0,-8z M640,344l8,0 0,8 -8,0 0,-8z M40,352l8,0 0,8 -8,0 0,-8z M56,352l8,0 0,8 -8,0 0,-8z M64,352l8,0 0,8 -8,0 0,-8z M80,352l8,0 0,8 -8,0 0,-8z M88,352l8,0 0,8 -8,0 0,-8z M96,352l8,0 0,8 -8,0 0,-8z M104,352l8,0 0,8 -8,0 0,-8z M112,352l8,0 0,8 -8,0 0,-8z M120,352l8,0 0,8 -8,0 0,-8z M136,352l8,0 0,8 -8,0 0,-8z M176,352l8,0 0,8 -8,0 0,-8z M184,352l8,0 0,8 -8,0 0,-8z M208,352l8,0 0,8 -8,0 0,-8z M216,352l8,0 0,8 -8,0 0,-8z M224,352l8,0 0,8 -8,0 0,-8z M240,352l8,0 0,8 -8,0 0,-8z M272,352l8,0 0,8 -8,0 0,-8z M288,352l8,0 0,8 -8,0 0,-8z M312,352l8,0 0,8 -8,0 0,-8z M320,352l8,0 0,8 -8,0 0,-8z M336,352l8,0 0,8 -8,0 0,-8z M360,352l8,0 0,8 -8,0 0,-8z M376,352l8,0 0,8 -8,0 0,-8z M384,352l8,0 0,8 -8,0 0,-8z M392,352l8,0 0,8 -8,0 0,-8z M416,352l8,0 0,8 -8,0 0,-8z M448,352l8,0 0,8 -8,0 0,-8z M464,352l8,0 0,8 -8,0 0,-8z M472,352l8,0 0,8 -8,0 0,-8z M488,352l8,0 0,8 -8,0 0,-8z M520,352l8,0 0,8 -8,0 0,-8z M568,352l8,0 0,8 -8,0 0,-8z M584,352l8,0 0,8 -8,0 0,-8z M600,352l8,0 0,8 -8,0 0,-8z M608,352l8,0 0,8 -8,0 0,-8z M616,352l8,0 0,8 -8,0 0,-8z M624,352l8,0 0,8 -8,0 0,-8z M632,352l8,0 0,8 -8,0 0,-8z M640,352l8,0 0,8 -8,0 0,-8z M64,360l8,0 0,8 -8,0 0,-8z M96,360l8,0 0,8 -8,0 0,-8z M104,360l8,0 0,8 -8,0 0,-8z M128,360l8,0 0,8 -8,0 0,-8z M176,360l8,0 0,8 -8,0 0,-8z M184,360l8,0 0,8 -8,0 0,-8z M192,360l8,0 0,8 -8,0 0,-8z M200,360l8,0 0,8 -8,0 0,-8z M216,360l8,0 0,8 -8,0 0,-8z M232,360l8,0 0,8 -8,0 0,-8z M240,360l8,0 0,8 -8,0 0,-8z M248,360l8,0 0,8 -8,0 0,-8z M256,360l8,0 0,8 -8,0 0,-8z M272,360l8,0 0,8 -8,0 0,-8z M280,360l8,0 0,8 -8,0 0,-8z M320,360l8,0 0,8 -8,0 0,-8z M328,360l8,0 0,8 -8,0 0,-8z M336,360l8,0 0,8 -8,0 0,-8z M360,360l8,0 0,8 -8,0 0,-8z M376,360l8,0 0,8 -8,0 0,-8z M392,360l8,0 0,8 -8,0 0,-8z M408,360l8,0 0,8 -8,0 0,-8z M416,360l8,0 0,8 -8,0 0,-8z M432,360l8,0 0,8 -8,0 0,-8z M440,360l8,0 0,8 -8,0 0,-8z M464,360l8,0 0,8 -8,0 0,-8z M472,360l8,0 0,8 -8,0 0,-8z M480,360l8,0 0,8 -8,0 0,-8z M488,360l8,0 0,8 -8,0 0,-8z M512,360l8,0 0,8 -8,0 0,-8z M520,360l8,0 0,8 -8,0 0,-8z M528,360l8,0 0,8 -8,0 0,-8z M544,360l8,0 0,8 -8,0 0,-8z M560,360l8,0 0,8 -8,0 0,-8z M592,360l8,0 0,8 -8,0 0,-8z M632,360l8,0 0,8 -8,0 0,-8z M32,368l8,0 0,8 -8,0 0,-8z M72,368l8,0 0,8 -8,0 0,-8z M80,368l8,0 0,8 -8,0 0,-8z M88,368l8,0 0,8 -8,0 0,-8z M96,368l8,0 0,8 -8,0 0,-8z M136,368l8,0 0,8 -8,0 0,-8z M160,368l8,0 0,8 -8,0 0,-8z M168,368l8,0 0,8 -8,0 0,-8z M176,368l8,0 0,8 -8,0 0,-8z M184,368l8,0 0,8 -8,0 0,-8z M192,368l8,0 0,8 -8,0 0,-8z M208,368l8,0 0,8 -8,0 0,-8z M216,368l8,0 0,8 -8,0 0,-8z M248,368l8,0 0,8 -8,0 0,-8z M256,368l8,0 0,8 -8,0 0,-8z M304,368l8,0 0,8 -8,0 0,-8z M328,368l8,0 0,8 -8,0 0,-8z M336,368l8,0 0,8 -8,0 0,-8z M352,368l8,0 0,8 -8,0 0,-8z M368,368l8,0 0,8 -8,0 0,-8z M384,368l8,0 0,8 -8,0 0,-8z M392,368l8,0 0,8 -8,0 0,-8z M408,368l8,0 0,8 -8,0 0,-8z M416,368l8,0 0,8 -8,0 0,-8z M432,368l8,0 0,8 -8,0 0,-8z M440,368l8,0 0,8 -8,0 0,-8z M448,368l8,0 0,8 -8,0 0,-8z M464,368l8,0 0,8 -8,0 0,-8z M488,368l8,0 0,8 -8,0 0,-8z M512,368l8,0 0,8 -8,0 0,-8z M520,368l8,0 0,8 -8,0 0,-8z M528,368l8,0 0,8 -8,0 0,-8z M552,368l8,0 0,8 -8,0 0,-8z M560,368l8,0 0,8 -8,0 0,-8z M568,368l8,0 0,8 -8,0 0,-8z M576,368l8,0 0,8 -8,0 0,-8z M592,368l8,0 0,8 -8,0 0,-8z M600,368l8,0 0,8 -8,0 0,-8z M608,368l8,0 0,8 -8,0 0,-8z M632,368l8,0 0,8 -8,0 0,-8z M640,368l8,0 0,8 -8,0 0,-8z M40,376l8,0 0,8 -8,0 0,-8z M64,376l8,0 0,8 -8,0 0,-8z M96,376l8,0 0,8 -8,0 0,-8z M120,376l8,0 0,8 -8,0 0,-8z M128,376l8,0 0,8 -8,0 0,-8z M136,376l8,0 0,8 -8,0 0,-8z M152,376l8,0 0,8 -8,0 0,-8z M184,376l8,0 0,8 -8,0 0,-8z M208,376l8,0 0,8 -8,0 0,-8z M232,376l8,0 0,8 -8,0 0,-8z M240,376l8,0 0,8 -8,0 0,-8z M272,376l8,0 0,8 -8,0 0,-8z M280,376l8,0 0,8 -8,0 0,-8z M296,376l8,0 0,8 -8,0 0,-8z M312,376l8,0 0,8 -8,0 0,-8z M336,376l8,0 0,8 -8,0 0,-8z M344,376l8,0 0,8 -8,0 0,-8z M352,376l8,0 0,8 -8,0 0,-8z M360,376l8,0 0,8 -8,0 0,-8z M384,376l8,0 0,8 -8,0 0,-8z M400,376l8,0 0,8 -8,0 0,-8z M408,376l8,0 0,8 -8,0 0,-8z M416,376l8,0 0,8 -8,0 0,-8z M432,376l8,0 0,8 -8,0 0,-8z M440,376l8,0 0,8 -8,0 0,-8z M456,376l8,0 0,8 -8,0 0,-8z M464,376l8,0 0,8 -8,0 0,-8z M480,376l8,0 0,8 -8,0 0,-8z M488,376l8,0 0,8 -8,0 0,-8z M496,376l8,0 0,8 -8,0 0,-8z M528,376l8,0 0,8 -8,0 0,-8z M536,376l8,0 0,8 -8,0 0,-8z M552,376l8,0 0,8 -8,0 0,-8z M560,376l8,0 0,8 -8,0 0,-8z M568,376l8,0 0,8 -8,0 0,-8z M592,376l8,0 0,8 -8,0 0,-8z M616,376l8,0 0,8 -8,0 0,-8z M640,376l8,0 0,8 -8,0 0,-8z M32,384l8,0 0,8 -8,0 0,-8z M40,384l8,0 0,8 -8,0 0,-8z M48,384l8,0 0,8 -8,0 0,-8z M64,384l8,0 0,8 -8,0 0,-8z M80,384l8,0 0,8 -8,0 0,-8z M104,384l8,0 0,8 -8,0 0,-8z M160,384l8,0 0,8 -8,0 0,-8z M168,384l8,0 0,8 -8,0 0,-8z M176,384l8,0 0,8 -8,0 0,-8z M192,384l8,0 0,8 -8,0 0,-8z M200,384l8,0 0,8 -8,0 0,-8z M232,384l8,0 0,8 -8,0 0,-8z M240,384l8,0 0,8 -8,0 0,-8z M248,384l8,0 0,8 -8,0 0,-8z M256,384l8,0 0,8 -8,0 0,-8z M264,384l8,0 0,8 -8,0 0,-8z M280,384l8,0 0,8 -8,0 0,-8z M320,384l8,0 0,8 -8,0 0,-8z M328,384l8,0 0,8 -8,0 0,-8z M344,384l8,0 0,8 -8,0 0,-8z M352,384l8,0 0,8 -8,0 0,-8z M376,384l8,0 0,8 -8,0 0,-8z M392,384l8,0 0,8 -8,0 0,-8z M400,384l8,0 0,8 -8,0 0,-8z M408,384l8,0 0,8 -8,0 0,-8z M448,384l8,0 0,8 -8,0 0,-8z M456,384l8,0 0,8 -8,0 0,-8z M480,384l8,0 0,8 -8,0 0,-8z M488,384l8,0 0,8 -8,0 0,-8z M504,384l8,0 0,8 -8,0 0,-8z M520,384l8,0 0,8 -8,0 0,-8z M544,384l8,0 0,8 -8,0 0,-8z M552,384l8,0 0,8 -8,0 0,-8z M560,384l8,0 0,8 -8,0 0,-8z M576,384l8,0 0,8 -8,0 0,-8z M600,384l8,0 0,8 -8,0 0,-8z M608,384l8,0 0,8 -8,0 0,-8z M624,384l8,0 0,8 -8,0 0,-8z M632,384l8,0 0,8 -8,0 0,-8z M40,392l8,0 0,8 -8,0 0,-8z M56,392l8,0 0,8 -8,0 0,-8z M88,392l8,0 0,8 -8,0 0,-8z M96,392l8,0 0,8 -8,0 0,-8z M104,392l8,0 0,8 -8,0 0,-8z M112,392l8,0 0,8 -8,0 0,-8z M120,392l8,0 0,8 -8,0 0,-8z M128,392l8,0 0,8 -8,0 0,-8z M152,392l8,0 0,8 -8,0 0,-8z M168,392l8,0 0,8 -8,0 0,-8z M184,392l8,0 0,8 -8,0 0,-8z M192,392l8,0 0,8 -8,0 0,-8z M216,392l8,0 0,8 -8,0 0,-8z M232,392l8,0 0,8 -8,0 0,-8z M240,392l8,0 0,8 -8,0 0,-8z M248,392l8,0 0,8 -8,0 0,-8z M288,392l8,0 0,8 -8,0 0,-8z M320,392l8,0 0,8 -8,0 0,-8z M360,392l8,0 0,8 -8,0 0,-8z M376,392l8,0 0,8 -8,0 0,-8z M384,392l8,0 0,8 -8,0 0,-8z M400,392l8,0 0,8 -8,0 0,-8z M408,392l8,0 0,8 -8,0 0,-8z M424,392l8,0 0,8 -8,0 0,-8z M440,392l8,0 0,8 -8,0 0,-8z M448,392l8,0 0,8 -8,0 0,-8z M456,392l8,0 0,8 -8,0 0,-8z M480,392l8,0 0,8 -8,0 0,-8z M488,392l8,0 0,8 -8,0 0,-8z M504,392l8,0 0,8 -8,0 0,-8z M520,392l8,0 0,8 -8,0 0,-8z M536,392l8,0 0,8 -8,0 0,-8z M552,392l8,0 0,8 -8,0 0,-8z M560,392l8,0 0,8 -8,0 0,-8z M576,392l8,0 0,8 -8,0 0,-8z M584,392l8,0 0,8 -8,0 0,-8z M592,392l8,0 0,8 -8,0 0,-8z M616,392l8,0 0,8 -8,0 0,-8z M624,392l8,0 0,8 -8,0 0,-8z M640,392l8,0 0,8 -8,0 0,-8z M32,400l8,0 0,8 -8,0 0,-8z M40,400l8,0 0,8 -8,0 0,-8z M64,400l8,0 0,8 -8,0 0,-8z M72,400l8,0 0,8 -8,0 0,-8z M80,400l8,0 0,8 -8,0 0,-8z M88,400l8,0 0,8 -8,0 0,-8z M96,400l8,0 0,8 -8,0 0,-8z M104,400l8,0 0,8 -8,0 0,-8z M112,400l8,0 0,8 -8,0 0,-8z M152,400l8,0 0,8 -8,0 0,-8z M160,400l8,0 0,8 -8,0 0,-8z M176,400l8,0 0,8 -8,0 0,-8z M184,400l8,0 0,8 -8,0 0,-8z M208,400l8,0 0,8 -8,0 0,-8z M224,400l8,0 0,8 -8,0 0,-8z M232,400l8,0 0,8 -8,0 0,-8z M240,400l8,0 0,8 -8,0 0,-8z M248,400l8,0 0,8 -8,0 0,-8z M256,400l8,0 0,8 -8,0 0,-8z M264,400l8,0 0,8 -8,0 0,-8z M272,400l8,0 0,8 -8,0 0,-8z M304,400l8,0 0,8 -8,0 0,-8z M312,400l8,0 0,8 -8,0 0,-8z M320,400l8,0 0,8 -8,0 0,-8z M352,400l8,0 0,8 -8,0 0,-8z M360,400l8,0 0,8 -8,0 0,-8z M376,400l8,0 0,8 -8,0 0,-8z M384,400l8,0 0,8 -8,0 0,-8z M392,400l8,0 0,8 -8,0 0,-8z M400,400l8,0 0,8 -8,0 0,-8z M408,400l8,0 0,8 -8,0 0,-8z M416,400l8,0 0,8 -8,0 0,-8z M424,400l8,0 0,8 -8,0 0,-8z M432,400l8,0 0,8 -8,0 0,-8z M448,400l8,0 0,8 -8,0 0,-8z M456,400l8,0 0,8 -8,0 0,-8z M472,400l8,0 0,8 -8,0 0,-8z M496,400l8,0 0,8 -8,0 0,-8z M504,400l8,0 0,8 -8,0 0,-8z M520,400l8,0 0,8 -8,0 0,-8z M536,400l8,0 0,8 -8,0 0,-8z M544,400l8,0 0,8 -8,0 0,-8z M552,400l8,0 0,8 -8,0 0,-8z M576,400l8,0 0,8 -8,0 0,-8z M584,400l8,0 0,8 -8,0 0,-8z M592,400l8,0 0,8 -8,0 0,-8z M600,400l8,0 0,8 -8,0 0,-8z M608,400l8,0 0,8 -8,0 0,-8z M624,400l8,0 0,8 -8,0 0,-8z M40,408l8,0 0,8 -8,0 0,-8z M48,408l8,0 0,8 -8,0 0,-8z M56,408l8,0 0,8 -8,0 0,-8z M64,408l8,0 0,8 -8,0 0,-8z M96,408l8,0 0,8 -8,0 0,-8z M112,408l8,0 0,8 -8,0 0,-8z M120,408l8,0 0,8 -8,0 0,-8z M128,408l8,0 0,8 -8,0 0,-8z M168,408l8,0 0,8 -8,0 0,-8z M176,408l8,0 0,8 -8,0 0,-8z M184,408l8,0 0,8 -8,0 0,-8z M192,408l8,0 0,8 -8,0 0,-8z M200,408l8,0 0,8 -8,0 0,-8z M208,408l8,0 0,8 -8,0 0,-8z M224,408l8,0 0,8 -8,0 0,-8z M256,408l8,0 0,8 -8,0 0,-8z M264,408l8,0 0,8 -8,0 0,-8z M272,408l8,0 0,8 -8,0 0,-8z M280,408l8,0 0,8 -8,0 0,-8z M288,408l8,0 0,8 -8,0 0,-8z M296,408l8,0 0,8 -8,0 0,-8z M312,408l8,0 0,8 -8,0 0,-8z M360,408l8,0 0,8 -8,0 0,-8z M384,408l8,0 0,8 -8,0 0,-8z M392,408l8,0 0,8 -8,0 0,-8z M400,408l8,0 0,8 -8,0 0,-8z M432,408l8,0 0,8 -8,0 0,-8z M440,408l8,0 0,8 -8,0 0,-8z M448,408l8,0 0,8 -8,0 0,-8z M456,408l8,0 0,8 -8,0 0,-8z M472,408l8,0 0,8 -8,0 0,-8z M520,408l8,0 0,8 -8,0 0,-8z M544,408l8,0 0,8 -8,0 0,-8z M576,408l8,0 0,8 -8,0 0,-8z M608,408l8,0 0,8 -8,0 0,-8z M624,408l8,0 0,8 -8,0 0,-8z M32,416l8,0 0,8 -8,0 0,-8z M40,416l8,0 0,8 -8,0 0,-8z M56,416l8,0 0,8 -8,0 0,-8z M64,416l8,0 0,8 -8,0 0,-8z M80,416l8,0 0,8 -8,0 0,-8z M96,416l8,0 0,8 -8,0 0,-8z M128,416l8,0 0,8 -8,0 0,-8z M144,416l8,0 0,8 -8,0 0,-8z M152,416l8,0 0,8 -8,0 0,-8z M160,416l8,0 0,8 -8,0 0,-8z M168,416l8,0 0,8 -8,0 0,-8z M192,416l8,0 0,8 -8,0 0,-8z M216,416l8,0 0,8 -8,0 0,-8z M224,416l8,0 0,8 -8,0 0,-8z M240,416l8,0 0,8 -8,0 0,-8z M256,416l8,0 0,8 -8,0 0,-8z M264,416l8,0 0,8 -8,0 0,-8z M272,416l8,0 0,8 -8,0 0,-8z M280,416l8,0 0,8 -8,0 0,-8z M288,416l8,0 0,8 -8,0 0,-8z M296,416l8,0 0,8 -8,0 0,-8z M304,416l8,0 0,8 -8,0 0,-8z M312,416l8,0 0,8 -8,0 0,-8z M320,416l8,0 0,8 -8,0 0,-8z M336,416l8,0 0,8 -8,0 0,-8z M344,416l8,0 0,8 -8,0 0,-8z M352,416l8,0 0,8 -8,0 0,-8z M360,416l8,0 0,8 -8,0 0,-8z M368,416l8,0 0,8 -8,0 0,-8z M384,416l8,0 0,8 -8,0 0,-8z M400,416l8,0 0,8 -8,0 0,-8z M416,416l8,0 0,8 -8,0 0,-8z M432,416l8,0 0,8 -8,0 0,-8z M448,416l8,0 0,8 -8,0 0,-8z M456,416l8,0 0,8 -8,0 0,-8z M464,416l8,0 0,8 -8,0 0,-8z M520,416l8,0 0,8 -8,0 0,-8z M528,416l8,0 0,8 -8,0 0,-8z M552,416l8,0 0,8 -8,0 0,-8z M568,416l8,0 0,8 -8,0 0,-8z M576,416l8,0 0,8 -8,0 0,-8z M592,416l8,0 0,8 -8,0 0,-8z M608,416l8,0 0,8 -8,0 0,-8z M616,416l8,0 0,8 -8,0 0,-8z M40,424l8,0 0,8 -8,0 0,-8z M56,424l8,0 0,8 -8,0 0,-8z M64,424l8,0 0,8 -8,0 0,-8z M96,424l8,0 0,8 -8,0 0,-8z M128,424l8,0 0,8 -8,0 0,-8z M144,424l8,0 0,8 -8,0 0,-8z M176,424l8,0 0,8 -8,0 0,-8z M184,424l8,0 0,8 -8,0 0,-8z M208,424l8,0 0,8 -8,0 0,-8z M216,424l8,0 0,8 -8,0 0,-8z M224,424l8,0 0,8 -8,0 0,-8z M256,424l8,0 0,8 -8,0 0,-8z M288,424l8,0 0,8 -8,0 0,-8z M296,424l8,0 0,8 -8,0 0,-8z M304,424l8,0 0,8 -8,0 0,-8z M320,424l8,0 0,8 -8,0 0,-8z M328,424l8,0 0,8 -8,0 0,-8z M344,424l8,0 0,8 -8,0 0,-8z M376,424l8,0 0,8 -8,0 0,-8z M400,424l8,0 0,8 -8,0 0,-8z M432,424l8,0 0,8 -8,0 0,-8z M440,424l8,0 0,8 -8,0 0,-8z M448,424l8,0 0,8 -8,0 0,-8z M456,424l8,0 0,8 -8,0 0,-8z M472,424l8,0 0,8 -8,0 0,-8z M480,424l8,0 0,8 -8,0 0,-8z M488,424l8,0 0,8 -8,0 0,-8z M496,424l8,0 0,8 -8,0 0,-8z M504,424l8,0 0,8 -8,0 0,-8z M544,424l8,0 0,8 -8,0 0,-8z M552,424l8,0 0,8 -8,0 0,-8z M576,424l8,0 0,8 -8,0 0,-8z M608,424l8,0 0,8 -8,0 0,-8z M616,424l8,0 0,8 -8,0 0,-8z M624,424l8,0 0,8 -8,0 0,-8z M640,424l8,0 0,8 -8,0 0,-8z M40,432l8,0 0,8 -8,0 0,-8z M48,432l8,0 0,8 -8,0 0,-8z M56,432l8,0 0,8 -8,0 0,-8z M64,432l8,0 0,8 -8,0 0,-8z M72,432l8,0 0,8 -8,0 0,-8z M80,432l8,0 0,8 -8,0 0,-8z M88,432l8,0 0,8 -8,0 0,-8z M96,432l8,0 0,8 -8,0 0,-8z M120,432l8,0 0,8 -8,0 0,-8z M144,432l8,0 0,8 -8,0 0,-8z M168,432l8,0 0,8 -8,0 0,-8z M184,432l8,0 0,8 -8,0 0,-8z M224,432l8,0 0,8 -8,0 0,-8z M232,432l8,0 0,8 -8,0 0,-8z M240,432l8,0 0,8 -8,0 0,-8z M248,432l8,0 0,8 -8,0 0,-8z M256,432l8,0 0,8 -8,0 0,-8z M296,432l8,0 0,8 -8,0 0,-8z M304,432l8,0 0,8 -8,0 0,-8z M320,432l8,0 0,8 -8,0 0,-8z M328,432l8,0 0,8 -8,0 0,-8z M336,432l8,0 0,8 -8,0 0,-8z M352,432l8,0 0,8 -8,0 0,-8z M400,432l8,0 0,8 -8,0 0,-8z M408,432l8,0 0,8 -8,0 0,-8z M416,432l8,0 0,8 -8,0 0,-8z M424,432l8,0 0,8 -8,0 0,-8z M432,432l8,0 0,8 -8,0 0,-8z M448,432l8,0 0,8 -8,0 0,-8z M488,432l8,0 0,8 -8,0 0,-8z M496,432l8,0 0,8 -8,0 0,-8z M504,432l8,0 0,8 -8,0 0,-8z M520,432l8,0 0,8 -8,0 0,-8z M528,432l8,0 0,8 -8,0 0,-8z M544,432l8,0 0,8 -8,0 0,-8z M568,432l8,0 0,8 -8,0 0,-8z M576,432l8,0 0,8 -8,0 0,-8z M584,432l8,0 0,8 -8,0 0,-8z M592,432l8,0 0,8 -8,0 0,-8z M600,432l8,0 0,8 -8,0 0,-8z M608,432l8,0 0,8 -8,0 0,-8z M624,432l8,0 0,8 -8,0 0,-8z M632,432l8,0 0,8 -8,0 0,-8z M640,432l8,0 0,8 -8,0 0,-8z M32,440l8,0 0,8 -8,0 0,-8z M56,440l8,0 0,8 -8,0 0,-8z M64,440l8,0 0,8 -8,0 0,-8z M96,440l8,0 0,8 -8,0 0,-8z M104,440l8,0 0,8 -8,0 0,-8z M120,440l8,0 0,8 -8,0 0,-8z M128,440l8,0 0,8 -8,0 0,-8z M136,440l8,0 0,8 -8,0 0,-8z M168,440l8,0 0,8 -8,0 0,-8z M208,440l8,0 0,8 -8,0 0,-8z M216,440l8,0 0,8 -8,0 0,-8z M232,440l8,0 0,8 -8,0 0,-8z M240,440l8,0 0,8 -8,0 0,-8z M248,440l8,0 0,8 -8,0 0,-8z M256,440l8,0 0,8 -8,0 0,-8z M272,440l8,0 0,8 -8,0 0,-8z M288,440l8,0 0,8 -8,0 0,-8z M296,440l8,0 0,8 -8,0 0,-8z M304,440l8,0 0,8 -8,0 0,-8z M416,440l8,0 0,8 -8,0 0,-8z M424,440l8,0 0,8 -8,0 0,-8z M432,440l8,0 0,8 -8,0 0,-8z M448,440l8,0 0,8 -8,0 0,-8z M472,440l8,0 0,8 -8,0 0,-8z M480,440l8,0 0,8 -8,0 0,-8z M496,440l8,0 0,8 -8,0 0,-8z M504,440l8,0 0,8 -8,0 0,-8z M512,440l8,0 0,8 -8,0 0,-8z M520,440l8,0 0,8 -8,0 0,-8z M544,440l8,0 0,8 -8,0 0,-8z M568,440l8,0 0,8 -8,0 0,-8z M576,440l8,0 0,8 -8,0 0,-8z M584,440l8,0 0,8 -8,0 0,-8z M600,440l8,0 0,8 -8,0 0,-8z M32,448l8,0 0,8 -8,0 0,-8z M40,448l8,0 0,8 -8,0 0,-8z M56,448l8,0 0,8 -8,0 0,-8z M72,448l8,0 0,8 -8,0 0,-8z M80,448l8,0 0,8 -8,0 0,-8z M104,448l8,0 0,8 -8,0 0,-8z M112,448l8,0 0,8 -8,0 0,-8z M128,448l8,0 0,8 -8,0 0,-8z M144,448l8,0 0,8 -8,0 0,-8z M160,448l8,0 0,8 -8,0 0,-8z M168,448l8,0 0,8 -8,0 0,-8z M176,448l8,0 0,8 -8,0 0,-8z M184,448l8,0 0,8 -8,0 0,-8z M200,448l8,0 0,8 -8,0 0,-8z M216,448l8,0 0,8 -8,0 0,-8z M224,448l8,0 0,8 -8,0 0,-8z M240,448l8,0 0,8 -8,0 0,-8z M272,448l8,0 0,8 -8,0 0,-8z M288,448l8,0 0,8 -8,0 0,-8z M312,448l8,0 0,8 -8,0 0,-8z M320,448l8,0 0,8 -8,0 0,-8z M344,448l8,0 0,8 -8,0 0,-8z M368,448l8,0 0,8 -8,0 0,-8z M384,448l8,0 0,8 -8,0 0,-8z M392,448l8,0 0,8 -8,0 0,-8z M400,448l8,0 0,8 -8,0 0,-8z M416,448l8,0 0,8 -8,0 0,-8z M424,448l8,0 0,8 -8,0 0,-8z M464,448l8,0 0,8 -8,0 0,-8z M472,448l8,0 0,8 -8,0 0,-8z M480,448l8,0 0,8 -8,0 0,-8z M488,448l8,0 0,8 -8,0 0,-8z M528,448l8,0 0,8 -8,0 0,-8z M544,448l8,0 0,8 -8,0 0,-8z M568,448l8,0 0,8 -8,0 0,-8z M584,448l8,0 0,8 -8,0 0,-8z M600,448l8,0 0,8 -8,0 0,-8z M608,448l8,0 0,8 -8,0 0,-8z M616,448l8,0 0,8 -8,0 0,-8z M624,448l8,0 0,8 -8,0 0,-8z M640,448l8,0 0,8 -8,0 0,-8z M32,456l8,0 0,8 -8,0 0,-8z M40,456l8,0 0,8 -8,0 0,-8z M56,456l8,0 0,8 -8,0 0,-8z M64,456l8,0 0,8 -8,0 0,-8z M96,456l8,0 0,8 -8,0 0,-8z M104,456l8,0 0,8 -8,0 0,-8z M112,456l8,0 0,8 -8,0 0,-8z M120,456l8,0 0,8 -8,0 0,-8z M136,456l8,0 0,8 -8,0 0,-8z M152,456l8,0 0,8 -8,0 0,-8z M168,456l8,0 0,8 -8,0 0,-8z M184,456l8,0 0,8 -8,0 0,-8z M208,456l8,0 0,8 -8,0 0,-8z M224,456l8,0 0,8 -8,0 0,-8z M232,456l8,0 0,8 -8,0 0,-8z M256,456l8,0 0,8 -8,0 0,-8z M272,456l8,0 0,8 -8,0 0,-8z M280,456l8,0 0,8 -8,0 0,-8z M320,456l8,0 0,8 -8,0 0,-8z M336,456l8,0 0,8 -8,0 0,-8z M344,456l8,0 0,8 -8,0 0,-8z M352,456l8,0 0,8 -8,0 0,-8z M360,456l8,0 0,8 -8,0 0,-8z M400,456l8,0 0,8 -8,0 0,-8z M408,456l8,0 0,8 -8,0 0,-8z M416,456l8,0 0,8 -8,0 0,-8z M424,456l8,0 0,8 -8,0 0,-8z M432,456l8,0 0,8 -8,0 0,-8z M448,456l8,0 0,8 -8,0 0,-8z M488,456l8,0 0,8 -8,0 0,-8z M504,456l8,0 0,8 -8,0 0,-8z M512,456l8,0 0,8 -8,0 0,-8z M520,456l8,0 0,8 -8,0 0,-8z M528,456l8,0 0,8 -8,0 0,-8z M544,456l8,0 0,8 -8,0 0,-8z M560,456l8,0 0,8 -8,0 0,-8z M576,456l8,0 0,8 -8,0 0,-8z M584,456l8,0 0,8 -8,0 0,-8z M600,456l8,0 0,8 -8,0 0,-8z M616,456l8,0 0,8 -8,0 0,-8z M640,456l8,0 0,8 -8,0 0,-8z M56,464l8,0 0,8 -8,0 0,-8z M64,464l8,0 0,8 -8,0 0,-8z M72,464l8,0 0,8 -8,0 0,-8z M80,464l8,0 0,8 -8,0 0,-8z M88,464l8,0 0,8 -8,0 0,-8z M96,464l8,0 0,8 -8,0 0,-8z M128,464l8,0 0,8 -8,0 0,-8z M160,464l8,0 0,8 -8,0 0,-8z M168,464l8,0 0,8 -8,0 0,-8z M176,464l8,0 0,8 -8,0 0,-8z M192,464l8,0 0,8 -8,0 0,-8z M200,464l8,0 0,8 -8,0 0,-8z M208,464l8,0 0,8 -8,0 0,-8z M232,464l8,0 0,8 -8,0 0,-8z M248,464l8,0 0,8 -8,0 0,-8z M256,464l8,0 0,8 -8,0 0,-8z M288,464l8,0 0,8 -8,0 0,-8z M296,464l8,0 0,8 -8,0 0,-8z M336,464l8,0 0,8 -8,0 0,-8z M368,464l8,0 0,8 -8,0 0,-8z M376,464l8,0 0,8 -8,0 0,-8z M384,464l8,0 0,8 -8,0 0,-8z M400,464l8,0 0,8 -8,0 0,-8z M408,464l8,0 0,8 -8,0 0,-8z M416,464l8,0 0,8 -8,0 0,-8z M424,464l8,0 0,8 -8,0 0,-8z M440,464l8,0 0,8 -8,0 0,-8z M456,464l8,0 0,8 -8,0 0,-8z M472,464l8,0 0,8 -8,0 0,-8z M480,464l8,0 0,8 -8,0 0,-8z M512,464l8,0 0,8 -8,0 0,-8z M520,464l8,0 0,8 -8,0 0,-8z M536,464l8,0 0,8 -8,0 0,-8z M552,464l8,0 0,8 -8,0 0,-8z M576,464l8,0 0,8 -8,0 0,-8z M584,464l8,0 0,8 -8,0 0,-8z M592,464l8,0 0,8 -8,0 0,-8z M608,464l8,0 0,8 -8,0 0,-8z M616,464l8,0 0,8 -8,0 0,-8z M624,464l8,0 0,8 -8,0 0,-8z M640,464l8,0 0,8 -8,0 0,-8z M32,472l8,0 0,8 -8,0 0,-8z M40,472l8,0 0,8 -8,0 0,-8z M88,472l8,0 0,8 -8,0 0,-8z M104,472l8,0 0,8 -8,0 0,-8z M128,472l8,0 0,8 -8,0 0,-8z M152,472l8,0 0,8 -8,0 0,-8z M168,472l8,0 0,8 -8,0 0,-8z M184,472l8,0 0,8 -8,0 0,-8z M192,472l8,0 0,8 -8,0 0,-8z M200,472l8,0 0,8 -8,0 0,-8z M208,472l8,0 0,8 -8,0 0,-8z M232,472l8,0 0,8 -8,0 0,-8z M240,472l8,0 0,8 -8,0 0,-8z M248,472l8,0 0,8 -8,0 0,-8z M256,472l8,0 0,8 -8,0 0,-8z M264,472l8,0 0,8 -8,0 0,-8z M280,472l8,0 0,8 -8,0 0,-8z M296,472l8,0 0,8 -8,0 0,-8z M304,472l8,0 0,8 -8,0 0,-8z M312,472l8,0 0,8 -8,0 0,-8z M336,472l8,0 0,8 -8,0 0,-8z M352,472l8,0 0,8 -8,0 0,-8z M368,472l8,0 0,8 -8,0 0,-8z M384,472l8,0 0,8 -8,0 0,-8z M416,472l8,0 0,8 -8,0 0,-8z M432,472l8,0 0,8 -8,0 0,-8z M440,472l8,0 0,8 -8,0 0,-8z M456,472l8,0 0,8 -8,0 0,-8z M480,472l8,0 0,8 -8,0 0,-8z M488,472l8,0 0,8 -8,0 0,-8z M496,472l8,0 0,8 -8,0 0,-8z M504,472l8,0 0,8 -8,0 0,-8z M512,472l8,0 0,8 -8,0 0,-8z M536,472l8,0 0,8 -8,0 0,-8z M544,472l8,0 0,8 -8,0 0,-8z M560,472l8,0 0,8 -8,0 0,-8z M568,472l8,0 0,8 -8,0 0,-8z M576,472l8,0 0,8 -8,0 0,-8z M600,472l8,0 0,8 -8,0 0,-8z M640,472l8,0 0,8 -8,0 0,-8z M40,480l8,0 0,8 -8,0 0,-8z M56,480l8,0 0,8 -8,0 0,-8z M80,480l8,0 0,8 -8,0 0,-8z M88,480l8,0 0,8 -8,0 0,-8z M96,480l8,0 0,8 -8,0 0,-8z M104,480l8,0 0,8 -8,0 0,-8z M112,480l8,0 0,8 -8,0 0,-8z M136,480l8,0 0,8 -8,0 0,-8z M144,480l8,0 0,8 -8,0 0,-8z M152,480l8,0 0,8 -8,0 0,-8z M160,480l8,0 0,8 -8,0 0,-8z M168,480l8,0 0,8 -8,0 0,-8z M208,480l8,0 0,8 -8,0 0,-8z M224,480l8,0 0,8 -8,0 0,-8z M256,480l8,0 0,8 -8,0 0,-8z M272,480l8,0 0,8 -8,0 0,-8z M280,480l8,0 0,8 -8,0 0,-8z M320,480l8,0 0,8 -8,0 0,-8z M344,480l8,0 0,8 -8,0 0,-8z M352,480l8,0 0,8 -8,0 0,-8z M368,480l8,0 0,8 -8,0 0,-8z M376,480l8,0 0,8 -8,0 0,-8z M392,480l8,0 0,8 -8,0 0,-8z M400,480l8,0 0,8 -8,0 0,-8z M408,480l8,0 0,8 -8,0 0,-8z M416,480l8,0 0,8 -8,0 0,-8z M432,480l8,0 0,8 -8,0 0,-8z M464,480l8,0 0,8 -8,0 0,-8z M504,480l8,0 0,8 -8,0 0,-8z M512,480l8,0 0,8 -8,0 0,-8z M568,480l8,0 0,8 -8,0 0,-8z M576,480l8,0 0,8 -8,0 0,-8z M584,480l8,0 0,8 -8,0 0,-8z M592,480l8,0 0,8 -8,0 0,-8z M600,480l8,0 0,8 -8,0 0,-8z M608,480l8,0 0,8 -8,0 0,-8z M616,480l8,0 0,8 -8,0 0,-8z M624,480l8,0 0,8 -8,0 0,-8z M632,480l8,0 0,8 -8,0 0,-8z M640,480l8,0 0,8 -8,0 0,-8z M40,488l8,0 0,8 -8,0 0,-8z M64,488l8,0 0,8 -8,0 0,-8z M96,488l8,0 0,8 -8,0 0,-8z M120,488l8,0 0,8 -8,0 0,-8z M136,488l8,0 0,8 -8,0 0,-8z M144,488l8,0 0,8 -8,0 0,-8z M152,488l8,0 0,8 -8,0 0,-8z M184,488l8,0 0,8 -8,0 0,-8z M200,488l8,0 0,8 -8,0 0,-8z M216,488l8,0 0,8 -8,0 0,-8z M232,488l8,0 0,8 -8,0 0,-8z M240,488l8,0 0,8 -8,0 0,-8z M248,488l8,0 0,8 -8,0 0,-8z M256,488l8,0 0,8 -8,0 0,-8z M264,488l8,0 0,8 -8,0 0,-8z M280,488l8,0 0,8 -8,0 0,-8z M288,488l8,0 0,8 -8,0 0,-8z M296,488l8,0 0,8 -8,0 0,-8z M312,488l8,0 0,8 -8,0 0,-8z M352,488l8,0 0,8 -8,0 0,-8z M376,488l8,0 0,8 -8,0 0,-8z M384,488l8,0 0,8 -8,0 0,-8z M392,488l8,0 0,8 -8,0 0,-8z M416,488l8,0 0,8 -8,0 0,-8z M424,488l8,0 0,8 -8,0 0,-8z M432,488l8,0 0,8 -8,0 0,-8z M440,488l8,0 0,8 -8,0 0,-8z M448,488l8,0 0,8 -8,0 0,-8z M456,488l8,0 0,8 -8,0 0,-8z M464,488l8,0 0,8 -8,0 0,-8z M488,488l8,0 0,8 -8,0 0,-8z M496,488l8,0 0,8 -8,0 0,-8z M504,488l8,0 0,8 -8,0 0,-8z M512,488l8,0 0,8 -8,0 0,-8z M520,488l8,0 0,8 -8,0 0,-8z M528,488l8,0 0,8 -8,0 0,-8z M536,488l8,0 0,8 -8,0 0,-8z M568,488l8,0 0,8 -8,0 0,-8z M576,488l8,0 0,8 -8,0 0,-8z M584,488l8,0 0,8 -8,0 0,-8z M624,488l8,0 0,8 -8,0 0,-8z M632,488l8,0 0,8 -8,0 0,-8z M640,488l8,0 0,8 -8,0 0,-8z M32,496l8,0 0,8 -8,0 0,-8z M40,496l8,0 0,8 -8,0 0,-8z M48,496l8,0 0,8 -8,0 0,-8z M64,496l8,0 0,8 -8,0 0,-8z M80,496l8,0 0,8 -8,0 0,-8z M88,496l8,0 0,8 -8,0 0,-8z M96,496l8,0 0,8 -8,0 0,-8z M120,496l8,0 0,8 -8,0 0,-8z M160,496l8,0 0,8 -8,0 0,-8z M168,496l8,0 0,8 -8,0 0,-8z M176,496l8,0 0,8 -8,0 0,-8z M208,496l8,0 0,8 -8,0 0,-8z M216,496l8,0 0,8 -8,0 0,-8z M224,496l8,0 0,8 -8,0 0,-8z M232,496l8,0 0,8 -8,0 0,-8z M280,496l8,0 0,8 -8,0 0,-8z M288,496l8,0 0,8 -8,0 0,-8z M296,496l8,0 0,8 -8,0 0,-8z M304,496l8,0 0,8 -8,0 0,-8z M328,496l8,0 0,8 -8,0 0,-8z M344,496l8,0 0,8 -8,0 0,-8z M368,496l8,0 0,8 -8,0 0,-8z M376,496l8,0 0,8 -8,0 0,-8z M400,496l8,0 0,8 -8,0 0,-8z M408,496l8,0 0,8 -8,0 0,-8z M416,496l8,0 0,8 -8,0 0,-8z M440,496l8,0 0,8 -8,0 0,-8z M456,496l8,0 0,8 -8,0 0,-8z M472,496l8,0 0,8 -8,0 0,-8z M488,496l8,0 0,8 -8,0 0,-8z M512,496l8,0 0,8 -8,0 0,-8z M528,496l8,0 0,8 -8,0 0,-8z M568,496l8,0 0,8 -8,0 0,-8z M576,496l8,0 0,8 -8,0 0,-8z M592,496l8,0 0,8 -8,0 0,-8z M600,496l8,0 0,8 -8,0 0,-8z M616,496l8,0 0,8 -8,0 0,-8z M632,496l8,0 0,8 -8,0 0,-8z M32,504l8,0 0,8 -8,0 0,-8z M48,504l8,0 0,8 -8,0 0,-8z M64,504l8,0 0,8 -8,0 0,-8z M72,504l8,0 0,8 -8,0 0,-8z M88,504l8,0 0,8 -8,0 0,-8z M144,504l8,0 0,8 -8,0 0,-8z M152,504l8,0 0,8 -8,0 0,-8z M184,504l8,0 0,8 -8,0 0,-8z M192,504l8,0 0,8 -8,0 0,-8z M216,504l8,0 0,8 -8,0 0,-8z M224,504l8,0 0,8 -8,0 0,-8z M232,504l8,0 0,8 -8,0 0,-8z M256,504l8,0 0,8 -8,0 0,-8z M280,504l8,0 0,8 -8,0 0,-8z M296,504l8,0 0,8 -8,0 0,-8z M304,504l8,0 0,8 -8,0 0,-8z M312,504l8,0 0,8 -8,0 0,-8z M320,504l8,0 0,8 -8,0 0,-8z M336,504l8,0 0,8 -8,0 0,-8z M352,504l8,0 0,8 -8,0 0,-8z M360,504l8,0 0,8 -8,0 0,-8z M368,504l8,0 0,8 -8,0 0,-8z M376,504l8,0 0,8 -8,0 0,-8z M384,504l8,0 0,8 -8,0 0,-8z M400,504l8,0 0,8 -8,0 0,-8z M416,504l8,0 0,8 -8,0 0,-8z M424,504l8,0 0,8 -8,0 0,-8z M440,504l8,0 0,8 -8,0 0,-8z M448,504l8,0 0,8 -8,0 0,-8z M480,504l8,0 0,8 -8,0 0,-8z M496,504l8,0 0,8 -8,0 0,-8z M512,504l8,0 0,8 -8,0 0,-8z M544,504l8,0 0,8 -8,0 0,-8z M552,504l8,0 0,8 -8,0 0,-8z M576,504l8,0 0,8 -8,0 0,-8z M600,504l8,0 0,8 -8,0 0,-8z M632,504l8,0 0,8 -8,0 0,-8z M640,504l8,0 0,8 -8,0 0,-8z M40,512l8,0 0,8 -8,0 0,-8z M56,512l8,0 0,8 -8,0 0,-8z M64,512l8,0 0,8 -8,0 0,-8z M80,512l8,0 0,8 -8,0 0,-8z M96,512l8,0 0,8 -8,0 0,-8z M112,512l8,0 0,8 -8,0 0,-8z M120,512l8,0 0,8 -8,0 0,-8z M128,512l8,0 0,8 -8,0 0,-8z M136,512l8,0 0,8 -8,0 0,-8z M144,512l8,0 0,8 -8,0 0,-8z M152,512l8,0 0,8 -8,0 0,-8z M160,512l8,0 0,8 -8,0 0,-8z M176,512l8,0 0,8 -8,0 0,-8z M184,512l8,0 0,8 -8,0 0,-8z M200,512l8,0 0,8 -8,0 0,-8z M216,512l8,0 0,8 -8,0 0,-8z M224,512l8,0 0,8 -8,0 0,-8z M232,512l8,0 0,8 -8,0 0,-8z M264,512l8,0 0,8 -8,0 0,-8z M272,512l8,0 0,8 -8,0 0,-8z M280,512l8,0 0,8 -8,0 0,-8z M288,512l8,0 0,8 -8,0 0,-8z M304,512l8,0 0,8 -8,0 0,-8z M312,512l8,0 0,8 -8,0 0,-8z M320,512l8,0 0,8 -8,0 0,-8z M328,512l8,0 0,8 -8,0 0,-8z M344,512l8,0 0,8 -8,0 0,-8z M352,512l8,0 0,8 -8,0 0,-8z M368,512l8,0 0,8 -8,0 0,-8z M376,512l8,0 0,8 -8,0 0,-8z M384,512l8,0 0,8 -8,0 0,-8z M392,512l8,0 0,8 -8,0 0,-8z M416,512l8,0 0,8 -8,0 0,-8z M456,512l8,0 0,8 -8,0 0,-8z M496,512l8,0 0,8 -8,0 0,-8z M544,512l8,0 0,8 -8,0 0,-8z M552,512l8,0 0,8 -8,0 0,-8z M568,512l8,0 0,8 -8,0 0,-8z M584,512l8,0 0,8 -8,0 0,-8z M592,512l8,0 0,8 -8,0 0,-8z M600,512l8,0 0,8 -8,0 0,-8z M608,512l8,0 0,8 -8,0 0,-8z M624,512l8,0 0,8 -8,0 0,-8z M32,520l8,0 0,8 -8,0 0,-8z M48,520l8,0 0,8 -8,0 0,-8z M56,520l8,0 0,8 -8,0 0,-8z M64,520l8,0 0,8 -8,0 0,-8z M72,520l8,0 0,8 -8,0 0,-8z M104,520l8,0 0,8 -8,0 0,-8z M120,520l8,0 0,8 -8,0 0,-8z M128,520l8,0 0,8 -8,0 0,-8z M136,520l8,0 0,8 -8,0 0,-8z M144,520l8,0 0,8 -8,0 0,-8z M152,520l8,0 0,8 -8,0 0,-8z M160,520l8,0 0,8 -8,0 0,-8z M168,520l8,0 0,8 -8,0 0,-8z M184,520l8,0 0,8 -8,0 0,-8z M200,520l8,0 0,8 -8,0 0,-8z M208,520l8,0 0,8 -8,0 0,-8z M216,520l8,0 0,8 -8,0 0,-8z M232,520l8,0 0,8 -8,0 0,-8z M256,520l8,0 0,8 -8,0 0,-8z M264,520l8,0 0,8 -8,0 0,-8z M280,520l8,0 0,8 -8,0 0,-8z M304,520l8,0 0,8 -8,0 0,-8z M328,520l8,0 0,8 -8,0 0,-8z M352,520l8,0 0,8 -8,0 0,-8z M384,520l8,0 0,8 -8,0 0,-8z M408,520l8,0 0,8 -8,0 0,-8z M416,520l8,0 0,8 -8,0 0,-8z M432,520l8,0 0,8 -8,0 0,-8z M448,520l8,0 0,8 -8,0 0,-8z M456,520l8,0 0,8 -8,0 0,-8z M464,520l8,0 0,8 -8,0 0,-8z M488,520l8,0 0,8 -8,0 0,-8z M504,520l8,0 0,8 -8,0 0,-8z M528,520l8,0 0,8 -8,0 0,-8z M544,520l8,0 0,8 -8,0 0,-8z M552,520l8,0 0,8 -8,0 0,-8z M560,520l8,0 0,8 -8,0 0,-8z M568,520l8,0 0,8 -8,0 0,-8z M576,520l8,0 0,8 -8,0 0,-8z M584,520l8,0 0,8 -8,0 0,-8z M592,520l8,0 0,8 -8,0 0,-8z M624,520l8,0 0,8 -8,0 0,-8z M32,528l8,0 0,8 -8,0 0,-8z M40,528l8,0 0,8 -8,0 0,-8z M48,528l8,0 0,8 -8,0 0,-8z M80,528l8,0 0,8 -8,0 0,-8z M96,528l8,0 0,8 -8,0 0,-8z M104,528l8,0 0,8 -8,0 0,-8z M128,528l8,0 0,8 -8,0 0,-8z M136,528l8,0 0,8 -8,0 0,-8z M144,528l8,0 0,8 -8,0 0,-8z M160,528l8,0 0,8 -8,0 0,-8z M168,528l8,0 0,8 -8,0 0,-8z M184,528l8,0 0,8 -8,0 0,-8z M192,528l8,0 0,8 -8,0 0,-8z M200,528l8,0 0,8 -8,0 0,-8z M224,528l8,0 0,8 -8,0 0,-8z M264,528l8,0 0,8 -8,0 0,-8z M280,528l8,0 0,8 -8,0 0,-8z M304,528l8,0 0,8 -8,0 0,-8z M312,528l8,0 0,8 -8,0 0,-8z M328,528l8,0 0,8 -8,0 0,-8z M344,528l8,0 0,8 -8,0 0,-8z M360,528l8,0 0,8 -8,0 0,-8z M376,528l8,0 0,8 -8,0 0,-8z M392,528l8,0 0,8 -8,0 0,-8z M400,528l8,0 0,8 -8,0 0,-8z M408,528l8,0 0,8 -8,0 0,-8z M448,528l8,0 0,8 -8,0 0,-8z M456,528l8,0 0,8 -8,0 0,-8z M472,528l8,0 0,8 -8,0 0,-8z M488,528l8,0 0,8 -8,0 0,-8z M512,528l8,0 0,8 -8,0 0,-8z M528,528l8,0 0,8 -8,0 0,-8z M536,528l8,0 0,8 -8,0 0,-8z M544,528l8,0 0,8 -8,0 0,-8z M560,528l8,0 0,8 -8,0 0,-8z M576,528l8,0 0,8 -8,0 0,-8z M640,528l8,0 0,8 -8,0 0,-8z M32,536l8,0 0,8 -8,0 0,-8z M40,536l8,0 0,8 -8,0 0,-8z M48,536l8,0 0,8 -8,0 0,-8z M72,536l8,0 0,8 -8,0 0,-8z M96,536l8,0 0,8 -8,0 0,-8z M112,536l8,0 0,8 -8,0 0,-8z M120,536l8,0 0,8 -8,0 0,-8z M136,536l8,0 0,8 -8,0 0,-8z M144,536l8,0 0,8 -8,0 0,-8z M152,536l8,0 0,8 -8,0 0,-8z M160,536l8,0 0,8 -8,0 0,-8z M168,536l8,0 0,8 -8,0 0,-8z M208,536l8,0 0,8 -8,0 0,-8z M256,536l8,0 0,8 -8,0 0,-8z M264,536l8,0 0,8 -8,0 0,-8z M272,536l8,0 0,8 -8,0 0,-8z M280,536l8,0 0,8 -8,0 0,-8z M320,536l8,0 0,8 -8,0 0,-8z M328,536l8,0 0,8 -8,0 0,-8z M336,536l8,0 0,8 -8,0 0,-8z M344,536l8,0 0,8 -8,0 0,-8z M352,536l8,0 0,8 -8,0 0,-8z M368,536l8,0 0,8 -8,0 0,-8z M376,536l8,0 0,8 -8,0 0,-8z M384,536l8,0 0,8 -8,0 0,-8z M392,536l8,0 0,8 -8,0 0,-8z M400,536l8,0 0,8 -8,0 0,-8z M424,536l8,0 0,8 -8,0 0,-8z M432,536l8,0 0,8 -8,0 0,-8z M440,536l8,0 0,8 -8,0 0,-8z M448,536l8,0 0,8 -8,0 0,-8z M472,536l8,0 0,8 -8,0 0,-8z M480,536l8,0 0,8 -8,0 0,-8z M504,536l8,0 0,8 -8,0 0,-8z M512,536l8,0 0,8 -8,0 0,-8z M536,536l8,0 0,8 -8,0 0,-8z M544,536l8,0 0,8 -8,0 0,-8z M568,536l8,0 0,8 -8,0 0,-8z M576,536l8,0 0,8 -8,0 0,-8z M584,536l8,0 0,8 -8,0 0,-8z M592,536l8,0 0,8 -8,0 0,-8z M632,536l8,0 0,8 -8,0 0,-8z M32,544l8,0 0,8 -8,0 0,-8z M40,544l8,0 0,8 -8,0 0,-8z M56,544l8,0 0,8 -8,0 0,-8z M64,544l8,0 0,8 -8,0 0,-8z M80,544l8,0 0,8 -8,0 0,-8z M88,544l8,0 0,8 -8,0 0,-8z M96,544l8,0 0,8 -8,0 0,-8z M152,544l8,0 0,8 -8,0 0,-8z M168,544l8,0 0,8 -8,0 0,-8z M208,544l8,0 0,8 -8,0 0,-8z M224,544l8,0 0,8 -8,0 0,-8z M232,544l8,0 0,8 -8,0 0,-8z M248,544l8,0 0,8 -8,0 0,-8z M264,544l8,0 0,8 -8,0 0,-8z M296,544l8,0 0,8 -8,0 0,-8z M320,544l8,0 0,8 -8,0 0,-8z M336,544l8,0 0,8 -8,0 0,-8z M344,544l8,0 0,8 -8,0 0,-8z M384,544l8,0 0,8 -8,0 0,-8z M392,544l8,0 0,8 -8,0 0,-8z M416,544l8,0 0,8 -8,0 0,-8z M424,544l8,0 0,8 -8,0 0,-8z M432,544l8,0 0,8 -8,0 0,-8z M448,544l8,0 0,8 -8,0 0,-8z M464,544l8,0 0,8 -8,0 0,-8z M472,544l8,0 0,8 -8,0 0,-8z M480,544l8,0 0,8 -8,0 0,-8z M488,544l8,0 0,8 -8,0 0,-8z M512,544l8,0 0,8 -8,0 0,-8z M552,544l8,0 0,8 -8,0 0,-8z M568,544l8,0 0,8 -8,0 0,-8z M576,544l8,0 0,8 -8,0 0,-8z M584,544l8,0 0,8 -8,0 0,-8z M632,544l8,0 0,8 -8,0 0,-8z M640,544l8,0 0,8 -8,0 0,-8z M40,552l8,0 0,8 -8,0 0,-8z M56,552l8,0 0,8 -8,0 0,-8z M64,552l8,0 0,8 -8,0 0,-8z M104,552l8,0 0,8 -8,0 0,-8z M128,552l8,0 0,8 -8,0 0,-8z M168,552l8,0 0,8 -8,0 0,-8z M224,552l8,0 0,8 -8,0 0,-8z M232,552l8,0 0,8 -8,0 0,-8z M248,552l8,0 0,8 -8,0 0,-8z M256,552l8,0 0,8 -8,0 0,-8z M272,552l8,0 0,8 -8,0 0,-8z M280,552l8,0 0,8 -8,0 0,-8z M296,552l8,0 0,8 -8,0 0,-8z M312,552l8,0 0,8 -8,0 0,-8z M336,552l8,0 0,8 -8,0 0,-8z M344,552l8,0 0,8 -8,0 0,-8z M352,552l8,0 0,8 -8,0 0,-8z M376,552l8,0 0,8 -8,0 0,-8z M400,552l8,0 0,8 -8,0 0,-8z M416,552l8,0 0,8 -8,0 0,-8z M464,552l8,0 0,8 -8,0 0,-8z M480,552l8,0 0,8 -8,0 0,-8z M488,552l8,0 0,8 -8,0 0,-8z M496,552l8,0 0,8 -8,0 0,-8z M512,552l8,0 0,8 -8,0 0,-8z M528,552l8,0 0,8 -8,0 0,-8z M560,552l8,0 0,8 -8,0 0,-8z M584,552l8,0 0,8 -8,0 0,-8z M600,552l8,0 0,8 -8,0 0,-8z M616,552l8,0 0,8 -8,0 0,-8z M624,552l8,0 0,8 -8,0 0,-8z M632,552l8,0 0,8 -8,0 0,-8z M40,560l8,0 0,8 -8,0 0,-8z M64,560l8,0 0,8 -8,0 0,-8z M72,560l8,0 0,8 -8,0 0,-8z M80,560l8,0 0,8 -8,0 0,-8z M88,560l8,0 0,8 -8,0 0,-8z M104,560l8,0 0,8 -8,0 0,-8z M136,560l8,0 0,8 -8,0 0,-8z M168,560l8,0 0,8 -8,0 0,-8z M192,560l8,0 0,8 -8,0 0,-8z M240,560l8,0 0,8 -8,0 0,-8z M248,560l8,0 0,8 -8,0 0,-8z M264,560l8,0 0,8 -8,0 0,-8z M272,560l8,0 0,8 -8,0 0,-8z M280,560l8,0 0,8 -8,0 0,-8z M296,560l8,0 0,8 -8,0 0,-8z M328,560l8,0 0,8 -8,0 0,-8z M336,560l8,0 0,8 -8,0 0,-8z M344,560l8,0 0,8 -8,0 0,-8z M352,560l8,0 0,8 -8,0 0,-8z M360,560l8,0 0,8 -8,0 0,-8z M408,560l8,0 0,8 -8,0 0,-8z M416,560l8,0 0,8 -8,0 0,-8z M424,560l8,0 0,8 -8,0 0,-8z M440,560l8,0 0,8 -8,0 0,-8z M456,560l8,0 0,8 -8,0 0,-8z M464,560l8,0 0,8 -8,0 0,-8z M488,560l8,0 0,8 -8,0 0,-8z M504,560l8,0 0,8 -8,0 0,-8z M536,560l8,0 0,8 -8,0 0,-8z M544,560l8,0 0,8 -8,0 0,-8z M552,560l8,0 0,8 -8,0 0,-8z M560,560l8,0 0,8 -8,0 0,-8z M576,560l8,0 0,8 -8,0 0,-8z M592,560l8,0 0,8 -8,0 0,-8z M632,560l8,0 0,8 -8,0 0,-8z M640,560l8,0 0,8 -8,0 0,-8z M64,568l8,0 0,8 -8,0 0,-8z M96,568l8,0 0,8 -8,0 0,-8z M104,568l8,0 0,8 -8,0 0,-8z M120,568l8,0 0,8 -8,0 0,-8z M144,568l8,0 0,8 -8,0 0,-8z M152,568l8,0 0,8 -8,0 0,-8z M168,568l8,0 0,8 -8,0 0,-8z M176,568l8,0 0,8 -8,0 0,-8z M184,568l8,0 0,8 -8,0 0,-8z M192,568l8,0 0,8 -8,0 0,-8z M208,568l8,0 0,8 -8,0 0,-8z M216,568l8,0 0,8 -8,0 0,-8z M224,568l8,0 0,8 -8,0 0,-8z M240,568l8,0 0,8 -8,0 0,-8z M248,568l8,0 0,8 -8,0 0,-8z M256,568l8,0 0,8 -8,0 0,-8z M280,568l8,0 0,8 -8,0 0,-8z M288,568l8,0 0,8 -8,0 0,-8z M296,568l8,0 0,8 -8,0 0,-8z M312,568l8,0 0,8 -8,0 0,-8z M320,568l8,0 0,8 -8,0 0,-8z M328,568l8,0 0,8 -8,0 0,-8z M336,568l8,0 0,8 -8,0 0,-8z M344,568l8,0 0,8 -8,0 0,-8z M376,568l8,0 0,8 -8,0 0,-8z M416,568l8,0 0,8 -8,0 0,-8z M464,568l8,0 0,8 -8,0 0,-8z M472,568l8,0 0,8 -8,0 0,-8z M536,568l8,0 0,8 -8,0 0,-8z M552,568l8,0 0,8 -8,0 0,-8z M568,568l8,0 0,8 -8,0 0,-8z M592,568l8,0 0,8 -8,0 0,-8z M600,568l8,0 0,8 -8,0 0,-8z M608,568l8,0 0,8 -8,0 0,-8z M640,568l8,0 0,8 -8,0 0,-8z M40,576l8,0 0,8 -8,0 0,-8z M48,576l8,0 0,8 -8,0 0,-8z M56,576l8,0 0,8 -8,0 0,-8z M64,576l8,0 0,8 -8,0 0,-8z M80,576l8,0 0,8 -8,0 0,-8z M96,576l8,0 0,8 -8,0 0,-8z M112,576l8,0 0,8 -8,0 0,-8z M120,576l8,0 0,8 -8,0 0,-8z M136,576l8,0 0,8 -8,0 0,-8z M160,576l8,0 0,8 -8,0 0,-8z M168,576l8,0 0,8 -8,0 0,-8z M192,576l8,0 0,8 -8,0 0,-8z M216,576l8,0 0,8 -8,0 0,-8z M224,576l8,0 0,8 -8,0 0,-8z M232,576l8,0 0,8 -8,0 0,-8z M240,576l8,0 0,8 -8,0 0,-8z M248,576l8,0 0,8 -8,0 0,-8z M256,576l8,0 0,8 -8,0 0,-8z M264,576l8,0 0,8 -8,0 0,-8z M272,576l8,0 0,8 -8,0 0,-8z M280,576l8,0 0,8 -8,0 0,-8z M296,576l8,0 0,8 -8,0 0,-8z M304,576l8,0 0,8 -8,0 0,-8z M320,576l8,0 0,8 -8,0 0,-8z M328,576l8,0 0,8 -8,0 0,-8z M344,576l8,0 0,8 -8,0 0,-8z M352,576l8,0 0,8 -8,0 0,-8z M368,576l8,0 0,8 -8,0 0,-8z M376,576l8,0 0,8 -8,0 0,-8z M392,576l8,0 0,8 -8,0 0,-8z M400,576l8,0 0,8 -8,0 0,-8z M408,576l8,0 0,8 -8,0 0,-8z M416,576l8,0 0,8 -8,0 0,-8z M424,576l8,0 0,8 -8,0 0,-8z M432,576l8,0 0,8 -8,0 0,-8z M448,576l8,0 0,8 -8,0 0,-8z M456,576l8,0 0,8 -8,0 0,-8z M464,576l8,0 0,8 -8,0 0,-8z M496,576l8,0 0,8 -8,0 0,-8z M504,576l8,0 0,8 -8,0 0,-8z M528,576l8,0 0,8 -8,0 0,-8z M544,576l8,0 0,8 -8,0 0,-8z M552,576l8,0 0,8 -8,0 0,-8z M560,576l8,0 0,8 -8,0 0,-8z M576,576l8,0 0,8 -8,0 0,-8z M584,576l8,0 0,8 -8,0 0,-8z M592,576l8,0 0,8 -8,0 0,-8z M600,576l8,0 0,8 -8,0 0,-8z M608,576l8,0 0,8 -8,0 0,-8z M624,576l8,0 0,8 -8,0 0,-8z M632,576l8,0 0,8 -8,0 0,-8z M640,576l8,0 0,8 -8,0 0,-8z M96,584l8,0 0,8 -8,0 0,-8z M104,584l8,0 0,8 -8,0 0,-8z M112,584l8,0 0,8 -8,0 0,-8z M120,584l8,0 0,8 -8,0 0,-8z M152,584l8,0 0,8 -8,0 0,-8z M168,584l8,0 0,8 -8,0 0,-8z M176,584l8,0 0,8 -8,0 0,-8z M200,584l8,0 0,8 -8,0 0,-8z M224,584l8,0 0,8 -8,0 0,-8z M256,584l8,0 0,8 -8,0 0,-8z M272,584l8,0 0,8 -8,0 0,-8z M288,584l8,0 0,8 -8,0 0,-8z M312,584l8,0 0,8 -8,0 0,-8z M320,584l8,0 0,8 -8,0 0,-8z M400,584l8,0 0,8 -8,0 0,-8z M432,584l8,0 0,8 -8,0 0,-8z M440,584l8,0 0,8 -8,0 0,-8z M456,584l8,0 0,8 -8,0 0,-8z M464,584l8,0 0,8 -8,0 0,-8z M472,584l8,0 0,8 -8,0 0,-8z M480,584l8,0 0,8 -8,0 0,-8z M488,584l8,0 0,8 -8,0 0,-8z M496,584l8,0 0,8 -8,0 0,-8z M504,584l8,0 0,8 -8,0 0,-8z M520,584l8,0 0,8 -8,0 0,-8z M544,584l8,0 0,8 -8,0 0,-8z M552,584l8,0 0,8 -8,0 0,-8z M560,584l8,0 0,8 -8,0 0,-8z M568,584l8,0 0,8 -8,0 0,-8z M576,584l8,0 0,8 -8,0 0,-8z M608,584l8,0 0,8 -8,0 0,-8z M616,584l8,0 0,8 -8,0 0,-8z M632,584l8,0 0,8 -8,0 0,-8z M640,584l8,0 0,8 -8,0 0,-8z M32,592l8,0 0,8 -8,0 0,-8z M40,592l8,0 0,8 -8,0 0,-8z M48,592l8,0 0,8 -8,0 0,-8z M56,592l8,0 0,8 -8,0 0,-8z M64,592l8,0 0,8 -8,0 0,-8z M72,592l8,0 0,8 -8,0 0,-8z M80,592l8,0 0,8 -8,0 0,-8z M112,592l8,0 0,8 -8,0 0,-8z M120,592l8,0 0,8 -8,0 0,-8z M128,592l8,0 0,8 -8,0 0,-8z M144,592l8,0 0,8 -8,0 0,-8z M160,592l8,0 0,8 -8,0 0,-8z M176,592l8,0 0,8 -8,0 0,-8z M200,592l8,0 0,8 -8,0 0,-8z M224,592l8,0 0,8 -8,0 0,-8z M240,592l8,0 0,8 -8,0 0,-8z M256,592l8,0 0,8 -8,0 0,-8z M264,592l8,0 0,8 -8,0 0,-8z M272,592l8,0 0,8 -8,0 0,-8z M312,592l8,0 0,8 -8,0 0,-8z M320,592l8,0 0,8 -8,0 0,-8z M400,592l8,0 0,8 -8,0 0,-8z M416,592l8,0 0,8 -8,0 0,-8z M432,592l8,0 0,8 -8,0 0,-8z M440,592l8,0 0,8 -8,0 0,-8z M496,592l8,0 0,8 -8,0 0,-8z M536,592l8,0 0,8 -8,0 0,-8z M576,592l8,0 0,8 -8,0 0,-8z M592,592l8,0 0,8 -8,0 0,-8z M608,592l8,0 0,8 -8,0 0,-8z M632,592l8,0 0,8 -8,0 0,-8z M32,600l8,0 0,8 -8,0 0,-8z M80,600l8,0 0,8 -8,0 0,-8z M96,600l8,0 0,8 -8,0 0,-8z M104,600l8,0 0,8 -8,0 0,-8z M112,600l8,0 0,8 -8,0 0,-8z M120,600l8,0 0,8 -8,0 0,-8z M144,600l8,0 0,8 -8,0 0,-8z M160,600l8,0 0,8 -8,0 0,-8z M168,600l8,0 0,8 -8,0 0,-8z M184,600l8,0 0,8 -8,0 0,-8z M200,600l8,0 0,8 -8,0 0,-8z M208,600l8,0 0,8 -8,0 0,-8z M224,600l8,0 0,8 -8,0 0,-8z M256,600l8,0 0,8 -8,0 0,-8z M280,600l8,0 0,8 -8,0 0,-8z M288,600l8,0 0,8 -8,0 0,-8z M304,600l8,0 0,8 -8,0 0,-8z M344,600l8,0 0,8 -8,0 0,-8z M360,600l8,0 0,8 -8,0 0,-8z M368,600l8,0 0,8 -8,0 0,-8z M376,600l8,0 0,8 -8,0 0,-8z M392,600l8,0 0,8 -8,0 0,-8z M400,600l8,0 0,8 -8,0 0,-8z M432,600l8,0 0,8 -8,0 0,-8z M440,600l8,0 0,8 -8,0 0,-8z M448,600l8,0 0,8 -8,0 0,-8z M456,600l8,0 0,8 -8,0 0,-8z M464,600l8,0 0,8 -8,0 0,-8z M472,600l8,0 0,8 -8,0 0,-8z M496,600l8,0 0,8 -8,0 0,-8z M512,600l8,0 0,8 -8,0 0,-8z M536,600l8,0 0,8 -8,0 0,-8z M544,600l8,0 0,8 -8,0 0,-8z M552,600l8,0 0,8 -8,0 0,-8z M576,600l8,0 0,8 -8,0 0,-8z M608,600l8,0 0,8 -8,0 0,-8z M624,600l8,0 0,8 -8,0 0,-8z M640,600l8,0 0,8 -8,0 0,-8z M32,608l8,0 0,8 -8,0 0,-8z M48,608l8,0 0,8 -8,0 0,-8z M56,608l8,0 0,8 -8,0 0,-8z M64,608l8,0 0,8 -8,0 0,-8z M80,608l8,0 0,8 -8,0 0,-8z M120,608l8,0 0,8 -8,0 0,-8z M152,608l8,0 0,8 -8,0 0,-8z M160,608l8,0 0,8 -8,0 0,-8z M168,608l8,0 0,8 -8,0 0,-8z M176,608l8,0 0,8 -8,0 0,-8z M184,608l8,0 0,8 -8,0 0,-8z M192,608l8,0 0,8 -8,0 0,-8z M200,608l8,0 0,8 -8,0 0,-8z M216,608l8,0 0,8 -8,0 0,-8z M224,608l8,0 0,8 -8,0 0,-8z M232,608l8,0 0,8 -8,0 0,-8z M240,608l8,0 0,8 -8,0 0,-8z M248,608l8,0 0,8 -8,0 0,-8z M256,608l8,0 0,8 -8,0 0,-8z M272,608l8,0 0,8 -8,0 0,-8z M280,608l8,0 0,8 -8,0 0,-8z M288,608l8,0 0,8 -8,0 0,-8z M312,608l8,0 0,8 -8,0 0,-8z M344,608l8,0 0,8 -8,0 0,-8z M352,608l8,0 0,8 -8,0 0,-8z M376,608l8,0 0,8 -8,0 0,-8z M384,608l8,0 0,8 -8,0 0,-8z M400,608l8,0 0,8 -8,0 0,-8z M408,608l8,0 0,8 -8,0 0,-8z M416,608l8,0 0,8 -8,0 0,-8z M424,608l8,0 0,8 -8,0 0,-8z M432,608l8,0 0,8 -8,0 0,-8z M440,608l8,0 0,8 -8,0 0,-8z M448,608l8,0 0,8 -8,0 0,-8z M456,608l8,0 0,8 -8,0 0,-8z M480,608l8,0 0,8 -8,0 0,-8z M488,608l8,0 0,8 -8,0 0,-8z M520,608l8,0 0,8 -8,0 0,-8z M544,608l8,0 0,8 -8,0 0,-8z M560,608l8,0 0,8 -8,0 0,-8z M576,608l8,0 0,8 -8,0 0,-8z M584,608l8,0 0,8 -8,0 0,-8z M592,608l8,0 0,8 -8,0 0,-8z M600,608l8,0 0,8 -8,0 0,-8z M608,608l8,0 0,8 -8,0 0,-8z M616,608l8,0 0,8 -8,0 0,-8z M632,608l8,0 0,8 -8,0 0,-8z M32,616l8,0 0,8 -8,0 0,-8z M48,616l8,0 0,8 -8,0 0,-8z M56,616l8,0 0,8 -8,0 0,-8z M64,616l8,0 0,8 -8,0 0,-8z M80,616l8,0 0,8 -8,0 0,-8z M96,616l8,0 0,8 -8,0 0,-8z M112,616l8,0 0,8 -8,0 0,-8z M120,616l8,0 0,8 -8,0 0,-8z M128,616l8,0 0,8 -8,0 0,-8z M144,616l8,0 0,8 -8,0 0,-8z M168,616l8,0 0,8 -8,0 0,-8z M176,616l8,0 0,8 -8,0 0,-8z M184,616l8,0 0,8 -8,0 0,-8z M192,616l8,0 0,8 -8,0 0,-8z M208,616l8,0 0,8 -8,0 0,-8z M224,616l8,0 0,8 -8,0 0,-8z M232,616l8,0 0,8 -8,0 0,-8z M240,616l8,0 0,8 -8,0 0,-8z M256,616l8,0 0,8 -8,0 0,-8z M264,616l8,0 0,8 -8,0 0,-8z M272,616l8,0 0,8 -8,0 0,-8z M280,616l8,0 0,8 -8,0 0,-8z M304,616l8,0 0,8 -8,0 0,-8z M312,616l8,0 0,8 -8,0 0,-8z M320,616l8,0 0,8 -8,0 0,-8z M328,616l8,0 0,8 -8,0 0,-8z M344,616l8,0 0,8 -8,0 0,-8z M352,616l8,0 0,8 -8,0 0,-8z M368,616l8,0 0,8 -8,0 0,-8z M384,616l8,0 0,8 -8,0 0,-8z M400,616l8,0 0,8 -8,0 0,-8z M408,616l8,0 0,8 -8,0 0,-8z M424,616l8,0 0,8 -8,0 0,-8z M432,616l8,0 0,8 -8,0 0,-8z M456,616l8,0 0,8 -8,0 0,-8z M472,616l8,0 0,8 -8,0 0,-8z M496,616l8,0 0,8 -8,0 0,-8z M544,616l8,0 0,8 -8,0 0,-8z M552,616l8,0 0,8 -8,0 0,-8z M568,616l8,0 0,8 -8,0 0,-8z M576,616l8,0 0,8 -8,0 0,-8z M584,616l8,0 0,8 -8,0 0,-8z M592,616l8,0 0,8 -8,0 0,-8z M608,616l8,0 0,8 -8,0 0,-8z M632,616l8,0 0,8 -8,0 0,-8z M640,616l8,0 0,8 -8,0 0,-8z M32,624l8,0 0,8 -8,0 0,-8z M48,624l8,0 0,8 -8,0 0,-8z M56,624l8,0 0,8 -8,0 0,-8z M64,624l8,0 0,8 -8,0 0,-8z M80,624l8,0 0,8 -8,0 0,-8z M112,624l8,0 0,8 -8,0 0,-8z M128,624l8,0 0,8 -8,0 0,-8z M136,624l8,0 0,8 -8,0 0,-8z M144,624l8,0 0,8 -8,0 0,-8z M152,624l8,0 0,8 -8,0 0,-8z M160,624l8,0 0,8 -8,0 0,-8z M176,624l8,0 0,8 -8,0 0,-8z M192,624l8,0 0,8 -8,0 0,-8z M200,624l8,0 0,8 -8,0 0,-8z M208,624l8,0 0,8 -8,0 0,-8z M216,624l8,0 0,8 -8,0 0,-8z M240,624l8,0 0,8 -8,0 0,-8z M264,624l8,0 0,8 -8,0 0,-8z M272,624l8,0 0,8 -8,0 0,-8z M280,624l8,0 0,8 -8,0 0,-8z M288,624l8,0 0,8 -8,0 0,-8z M328,624l8,0 0,8 -8,0 0,-8z M336,624l8,0 0,8 -8,0 0,-8z M360,624l8,0 0,8 -8,0 0,-8z M368,624l8,0 0,8 -8,0 0,-8z M376,624l8,0 0,8 -8,0 0,-8z M392,624l8,0 0,8 -8,0 0,-8z M400,624l8,0 0,8 -8,0 0,-8z M408,624l8,0 0,8 -8,0 0,-8z M424,624l8,0 0,8 -8,0 0,-8z M440,624l8,0 0,8 -8,0 0,-8z M448,624l8,0 0,8 -8,0 0,-8z M472,624l8,0 0,8 -8,0 0,-8z M504,624l8,0 0,8 -8,0 0,-8z M512,624l8,0 0,8 -8,0 0,-8z M520,624l8,0 0,8 -8,0 0,-8z M528,624l8,0 0,8 -8,0 0,-8z M552,624l8,0 0,8 -8,0 0,-8z M568,624l8,0 0,8 -8,0 0,-8z M576,624l8,0 0,8 -8,0 0,-8z M584,624l8,0 0,8 -8,0 0,-8z M592,624l8,0 0,8 -8,0 0,-8z M608,624l8,0 0,8 -8,0 0,-8z M640,624l8,0 0,8 -8,0 0,-8z M32,632l8,0 0,8 -8,0 0,-8z M80,632l8,0 0,8 -8,0 0,-8z M104,632l8,0 0,8 -8,0 0,-8z M128,632l8,0 0,8 -8,0 0,-8z M136,632l8,0 0,8 -8,0 0,-8z M168,632l8,0 0,8 -8,0 0,-8z M176,632l8,0 0,8 -8,0 0,-8z M192,632l8,0 0,8 -8,0 0,-8z M216,632l8,0 0,8 -8,0 0,-8z M224,632l8,0 0,8 -8,0 0,-8z M240,632l8,0 0,8 -8,0 0,-8z M264,632l8,0 0,8 -8,0 0,-8z M272,632l8,0 0,8 -8,0 0,-8z M288,632l8,0 0,8 -8,0 0,-8z M296,632l8,0 0,8 -8,0 0,-8z M320,632l8,0 0,8 -8,0 0,-8z M328,632l8,0 0,8 -8,0 0,-8z M336,632l8,0 0,8 -8,0 0,-8z M344,632l8,0 0,8 -8,0 0,-8z M352,632l8,0 0,8 -8,0 0,-8z M360,632l8,0 0,8 -8,0 0,-8z M384,632l8,0 0,8 -8,0 0,-8z M400,632l8,0 0,8 -8,0 0,-8z M408,632l8,0 0,8 -8,0 0,-8z M432,632l8,0 0,8 -8,0 0,-8z M448,632l8,0 0,8 -8,0 0,-8z M480,632l8,0 0,8 -8,0 0,-8z M512,632l8,0 0,8 -8,0 0,-8z M544,632l8,0 0,8 -8,0 0,-8z M560,632l8,0 0,8 -8,0 0,-8z M576,632l8,0 0,8 -8,0 0,-8z M584,632l8,0 0,8 -8,0 0,-8z M600,632l8,0 0,8 -8,0 0,-8z M632,632l8,0 0,8 -8,0 0,-8z M32,640l8,0 0,8 -8,0 0,-8z M40,640l8,0 0,8 -8,0 0,-8z M48,640l8,0 0,8 -8,0 0,-8z M56,640l8,0 0,8 -8,0 0,-8z M64,640l8,0 0,8 -8,0 0,-8z M72,640l8,0 0,8 -8,0 0,-8z M80,640l8,0 0,8 -8,0 0,-8z M96,640l8,0 0,8 -8,0 0,-8z M112,640l8,0 0,8 -8,0 0,-8z M120,640l8,0 0,8 -8,0 0,-8z M152,640l8,0 0,8 -8,0 0,-8z M168,640l8,0 0,8 -8,0 0,-8z M176,640l8,0 0,8 -8,0 0,-8z M200,640l8,0 0,8 -8,0 0,-8z M216,640l8,0 0,8 -8,0 0,-8z M224,640l8,0 0,8 -8,0 0,-8z M232,640l8,0 0,8 -8,0 0,-8z M240,640l8,0 0,8 -8,0 0,-8z M256,640l8,0 0,8 -8,0 0,-8z M264,640l8,0 0,8 -8,0 0,-8z M280,640l8,0 0,8 -8,0 0,-8z M288,640l8,0 0,8 -8,0 0,-8z M296,640l8,0 0,8 -8,0 0,-8z M320,640l8,0 0,8 -8,0 0,-8z M328,640l8,0 0,8 -8,0 0,-8z M368,640l8,0 0,8 -8,0 0,-8z M376,640l8,0 0,8 -8,0 0,-8z M384,640l8,0 0,8 -8,0 0,-8z M408,640l8,0 0,8 -8,0 0,-8z M424,640l8,0 0,8 -8,0 0,-8z M456,640l8,0 0,8 -8,0 0,-8z M472,640l8,0 0,8 -8,0 0,-8z M480,640l8,0 0,8 -8,0 0,-8z M488,640l8,0 0,8 -8,0 0,-8z M496,640l8,0 0,8 -8,0 0,-8z M512,640l8,0 0,8 -8,0 0,-8z M520,640l8,0 0,8 -8,0 0,-8z M544,640l8,0 0,8 -8,0 0,-8z M576,640l8,0 0,8 -8,0 0,-8z M600,640l8,0 0,8 -8,0 0,-8z M616,640l8,0 0,8 -8,0 0,-8z M632,640l8,0 0,8 -8,0 0,-8z " stroke="transparent" fill="black"/></svg>
